<?xml version="1.0" encoding="utf-8"?>
<!-- Generator: Adobe Illustrator 21.0.0, SVG Export Plug-In . SVG Version: 6.00 Build 0)  -->
<svg version="1.1" id="Layer_1" xmlns="http://www.w3.org/2000/svg" xmlns:xlink="http://www.w3.org/1999/xlink" x="0px" y="0px"
	 width="50px" height="50px" viewBox="0 0 50 50" style="enable-background:new 0 0 50 50;" xml:space="preserve">
<style type="text/css">
	.st0{fill:#AF995A;}
	.st1{fill:#FFFFFF;}
</style>
<circle class="st0" cx="25" cy="25" r="25"/>
<path class="st1" d="M36.1,16.1h-5.6V15c0-1.7-1.3-3-3-3h-5.1c-1.7,0-3,1.3-3,3v1.1h-5.6c-2.1,0-3.9,1.7-3.9,3.9v13.1
	c0,2.1,1.7,3.9,3.9,3.9h22.3c2.1,0,3.9-1.7,3.9-3.9V20C40,17.9,38.3,16.1,36.1,16.1z M20.3,15c0-1.2,1-2.2,2.2-2.2h5.1
	c1.2,0,2.2,1,2.2,2.2v1.1h-9.4V15z M13.9,17h6h10.3h6c1.7,0,3,1.3,3,3v4.4c0,0,0,0,0,0c0,0-1.6,0.7-4.1,1.5c0-0.7-0.6-1.2-1.3-1.2
	h-3.4c-0.7,0-1.3,0.6-1.3,1.3v1.1c-2.7,0.3-5.3,0.3-8,0V26c0-0.7-0.6-1.3-1.3-1.3h-3.4c-0.7,0-1.2,0.5-1.3,1.2
	c-2.5-0.7-4.1-1.5-4.1-1.5c0,0,0,0,0,0V20C10.9,18.3,12.2,17,13.9,17z M34.1,26v5.1c0,0.2-0.2,0.4-0.4,0.4h-3.4
	c-0.2,0-0.4-0.2-0.4-0.4V26c0-0.2,0.2-0.4,0.4-0.4h3.4C34,25.6,34.1,25.8,34.1,26z M20.1,26v5.1c0,0.2-0.2,0.4-0.4,0.4h-3.4
	c-0.2,0-0.4-0.2-0.4-0.4V26c0-0.2,0.2-0.4,0.4-0.4h3.4C20,25.6,20.1,25.8,20.1,26z M36.1,36.1H13.9c-1.7,0-3-1.3-3-3v-7.6
	c0.7,0.3,2.1,0.9,4.1,1.4v4.2c0,0.7,0.6,1.3,1.3,1.3h3.4c0.7,0,1.3-0.6,1.3-1.3v-3c1.4,0.2,2.7,0.2,4,0.2c1.3,0,2.6-0.1,4-0.2v3
	c0,0.7,0.6,1.3,1.3,1.3h3.4c0.7,0,1.3-0.6,1.3-1.3V27c2-0.6,3.5-1.1,4.1-1.4v7.6C39.1,34.8,37.8,36.1,36.1,36.1z"/>
</svg>
