<?xml version="1.0" encoding="utf-8"?>
<!-- Generator: Adobe Illustrator 21.0.0, SVG Export Plug-In . SVG Version: 6.00 Build 0)  -->
<svg version="1.1" id="Layer_1" xmlns="http://www.w3.org/2000/svg" xmlns:xlink="http://www.w3.org/1999/xlink" x="0px" y="0px"
	 width="50px" height="50px" viewBox="0 0 50 50" style="enable-background:new 0 0 50 50;" xml:space="preserve">
<style type="text/css">
	.st0{fill:#AF995A;}
	.st1{fill:#FFFFFF;}
</style>
<circle class="st0" cx="25" cy="25" r="25"/>
<g>
	<path class="st1" d="M22.2,40.4c-0.5,0-1-0.2-1.4-0.6L10.2,29.2c-0.8-0.8-0.8-2,0-2.8l14.2-14.2c0.5-0.5,1.2-0.7,1.8-0.5l8.9,1.9
		c0.8,0.2,1.4,0.8,1.6,1.6l1.7,8.7l0,0c0.1,0.7-0.1,1.3-0.5,1.8L23.6,39.8C23.2,40.2,22.7,40.4,22.2,40.4z M25.8,12.6
		c-0.3,0-0.5,0.1-0.7,0.3L10.9,27.1c-0.4,0.4-0.4,1,0,1.4l10.6,10.6c0.4,0.4,1,0.4,1.4,0l14.2-14.2c0.2-0.2,0.3-0.6,0.3-0.9
		l-1.7-8.7c-0.1-0.4-0.4-0.7-0.8-0.8L26,12.6C25.9,12.6,25.8,12.6,25.8,12.6z"/>
	<path class="st1" d="M30.4,22.3c-0.7,0-1.4-0.3-1.9-0.8c-0.5-0.5-0.8-1.2-0.8-1.9c0-0.7,0.3-1.4,0.8-1.9c0.5-0.5,1.2-0.8,1.9-0.8
		c0,0,0,0,0,0c0.7,0,1.4,0.3,1.9,0.8s0.8,1.2,0.8,1.9c0,0.7-0.3,1.4-0.8,1.9C31.8,22.1,31.1,22.3,30.4,22.3z M30.4,17.9
		c-0.5,0-0.9,0.2-1.2,0.5c-0.3,0.3-0.5,0.8-0.5,1.2c0,0.5,0.2,0.9,0.5,1.2c0.7,0.7,1.8,0.7,2.5,0c0.3-0.3,0.5-0.8,0.5-1.2
		c0-0.5-0.2-0.9-0.5-1.2S30.8,17.9,30.4,17.9C30.4,17.9,30.4,17.9,30.4,17.9z"/>
	<path class="st1" d="M21.5,33.8c-0.1,0-0.1,0-0.2,0c-0.4-0.1-0.7-0.3-0.8-0.7l-0.8-2.7l-2.7-0.8c-0.4-0.1-0.6-0.4-0.7-0.8
		c-0.1-0.4,0.1-0.8,0.4-1l2.4-1.7l0-2.9c0-0.4,0.2-0.7,0.6-0.9s0.7-0.1,1,0.1l2.3,1.7l2.7-1c0.4-0.1,0.8,0,1,0.2
		c0.3,0.3,0.4,0.7,0.2,1l-1,2.7l1.7,2.3c0.2,0.3,0.3,0.7,0.1,1C27.7,30.7,27.4,31,27,31l-2.9,0l-1.7,2.4
		C22.2,33.7,21.9,33.8,21.5,33.8z M20.3,23.2l0,2.9c0,0.3-0.2,0.6-0.4,0.8l-2.4,1.7l2.7,0.8c0.3,0.1,0.6,0.4,0.7,0.7l0.8,2.7
		l1.7-2.4c0.2-0.3,0.5-0.4,0.8-0.4l2.9,0l-1.7-2.3c-0.2-0.3-0.2-0.6-0.1-0.9l1-2.7c0,0,0,0,0,0l0.5,0.2l-0.5-0.2l-2.7,1
		c-0.3,0.1-0.7,0.1-0.9-0.1L20.3,23.2z"/>
</g>
</svg>
