<?xml version="1.0" encoding="utf-8"?>
<!-- Generator: Adobe Illustrator 21.0.0, SVG Export Plug-In . SVG Version: 6.00 Build 0)  -->
<svg version="1.1" id="Capa_1" xmlns="http://www.w3.org/2000/svg" xmlns:xlink="http://www.w3.org/1999/xlink" x="0px" y="0px"
	 width="30px" height="60px" viewBox="0 0 30 60" style="enable-background:new 0 0 30 60;" xml:space="preserve">
<style type="text/css">
	.st0{fill:#AF995A;}
	.st1{fill:#FFFFFF;}
</style>
<g>
	<path class="st0" d="M15,2c7.2,0,13,5.8,13,13s-5.8,13-13,13S2,22.2,2,15S7.8,2,15,2 M15,0C6.7,0,0,6.7,0,15s6.7,15,15,15
		s15-6.7,15-15S23.3,0,15,0L15,0z"/>
</g>
<path class="st0" d="M17.3,9.6l1.5,0V7c-0.3,0-1.2-0.1-2.2-0.1c-2.2,0-3.7,1.4-3.7,3.9v2.2h-2.5v2.9h2.5v8h3v-8h2.5l0.4-2.9h-2.9V11
	C15.9,10.2,16.1,9.6,17.3,9.6z"/>
<circle class="st0" cx="15" cy="45" r="15"/>
<path class="st1" d="M17.3,39.6l1.5,0V37c-0.3,0-1.2-0.1-2.2-0.1c-2.2,0-3.7,1.4-3.7,3.9v2.2h-2.5v2.9h2.5v8h3v-8h2.5l0.4-2.9h-2.9
	V41C15.9,40.2,16.1,39.6,17.3,39.6z"/>
</svg>
