<?xml version="1.0" encoding="utf-8"?>
<!-- Generator: Adobe Illustrator 21.0.0, SVG Export Plug-In . SVG Version: 6.00 Build 0)  -->
<svg version="1.1" id="Layer_1" xmlns="http://www.w3.org/2000/svg" xmlns:xlink="http://www.w3.org/1999/xlink" x="0px" y="0px"
	 width="50px" height="50px" viewBox="0 0 50 50" style="enable-background:new 0 0 50 50;" xml:space="preserve">
<style type="text/css">
	.st0{fill:#AF995A;}
	.st1{fill:#FFFFFF;}
</style>
<circle class="st0" cx="25" cy="25" r="25"/>
<path class="st1" d="M41.3,24.8l-5-8.9c-0.2-0.4-0.6-0.7-1.1-0.8c-0.4-0.1-0.9,0-1.2,0.2L32.9,16c-0.7,0.5-1,1.6-0.5,2.4l0.2,0.3
	c-1,0.4-2,0.2-3.1-0.1c-1.3-0.3-2.7-0.7-4.7-0.3c-2.6,0.5-3.3,1-3.7,1.2c-0.2,0.1-0.3,0.2-0.5,0.2c-0.7,0-2-0.5-2.9-1l0.1-0.1
	c0.5-0.8,0.2-1.9-0.5-2.4L16,15.3c-0.4-0.2-0.8-0.3-1.2-0.2c-0.4,0.1-0.8,0.4-1.1,0.8l-5,8.9c-0.5,0.8-0.2,1.9,0.5,2.4l1.1,0.7
	c0.3,0.2,0.6,0.3,0.9,0.3c0.1,0,0.2,0,0.4,0c0.4-0.1,0.8-0.4,1.1-0.8l0.2-0.4l1.4,1.6L14,28.8c-0.6,0.7-0.5,1.8,0.2,2.4l0.1,0.1
	c0,0,0,0,0,0c0.3,0.3,0.7,0.4,1.1,0.4c0,0,0.1,0,0.1,0c-0.1,0.6,0,1.3,0.5,1.7l0.1,0.1c0,0,0,0,0,0c0.3,0.3,0.7,0.4,1.1,0.4
	c0,0,0.1,0,0.1,0c0.1,0,0.3-0.1,0.4-0.1c0,0.4,0.2,0.9,0.6,1.2l0.1,0.1c0,0,0,0,0,0c0.3,0.3,0.7,0.4,1.1,0.4c0,0,0.1,0,0.1,0
	c0.2,0,0.5-0.1,0.7-0.2c0,0.4,0.2,0.9,0.6,1.2l0.1,0.1c0,0,0,0,0,0c0.3,0.3,0.7,0.4,1.1,0.4c0,0,0.1,0,0.1,0c0.4,0,0.9-0.3,1.1-0.6
	l0.4-0.6c1.3,0.7,2.3,0.9,3,0.9c0.7,0,1.2-0.2,1.6-0.4c0.5-0.3,0.8-0.7,0.9-1.1c0.7,0.1,1.2-0.2,1.5-0.5c0.4-0.4,0.6-0.9,0.7-1.4
	c0.5,0,0.9-0.1,1.3-0.4c0.5-0.4,0.8-1,0.9-1.5c0.6,0.1,1.2-0.1,1.6-0.6c0.5-0.6,0.5-1.4,0.1-2.2l2-1.6l0.2,0.3
	c0.2,0.4,0.6,0.7,1.1,0.8c0.1,0,0.2,0,0.4,0c0.3,0,0.6-0.1,0.9-0.3l1.1-0.7C41.5,26.6,41.7,25.6,41.3,24.8z M11.4,27.1
	c-0.2,0-0.3,0-0.4-0.1l-1.1-0.7c-0.3-0.2-0.4-0.7-0.2-1.1l5-8.9c0.1-0.2,0.2-0.3,0.4-0.3c0,0,0.1,0,0.1,0c0.1,0,0.2,0,0.3,0.1
	l1.1,0.7c0.3,0.2,0.4,0.7,0.2,1.1l-0.3,0.6l0,0l0,0l-4.7,8.4C11.7,27,11.5,27.1,11.4,27.1z M15,30.6L15,30.6
	c-0.4-0.3-0.4-0.8-0.2-1.1l0.8-1.1c0.1-0.1,0.3-0.2,0.4-0.3c0,0,0,0,0,0c0.1,0,0.3,0.1,0.5,0.2c0.3,0.3,0.3,0.8,0.1,1.1l-0.8,1.1
	c-0.1,0.1-0.3,0.2-0.4,0.3C15.3,30.8,15.1,30.7,15,30.6z M17.2,33c-0.2,0-0.3,0-0.4-0.2c0,0-0.1-0.1-0.1-0.1
	c-0.3-0.3-0.3-0.8-0.1-1.1l2.3-3.1c0.1-0.1,0.3-0.2,0.4-0.3c0,0,0,0,0,0c0.1,0,0.3,0.1,0.5,0.2c0.3,0.3,0.3,0.8,0.1,1.1l-2.3,3.1
	C17.5,32.9,17.4,33,17.2,33z M19.5,34.5c-0.2,0-0.3,0-0.4-0.2L19,34.3c-0.3-0.3-0.3-0.8-0.1-1.1l1.9-2.5c0.1-0.1,0.3-0.2,0.4-0.3
	c0,0,0,0,0,0c0.1,0,0.3,0.1,0.5,0.2c0.3,0.3,0.3,0.8,0.1,1.1l-1.9,2.5C19.8,34.4,19.6,34.5,19.5,34.5z M22.4,35.7
	C22.3,35.9,22.1,36,22,36c-0.2,0-0.3,0-0.4-0.2l-0.1-0.1c-0.3-0.3-0.3-0.8-0.1-1.1l1.2-1.6c0.1-0.1,0.3-0.2,0.4-0.3c0,0,0,0,0,0
	c0.1,0,0.3,0.1,0.5,0.2c0.3,0.3,0.3,0.8,0.1,1.1L22.4,35.7z M34.3,30.2c-0.2,0.3-0.6,0.3-1,0.2l-5-3c-0.2-0.1-0.5-0.1-0.7,0.2
	c-0.1,0.2-0.1,0.5,0.2,0.7l4.8,2.9c-0.1,0.3-0.2,0.8-0.5,1c-0.2,0.2-0.6,0.2-1,0.1l-4.2-2.5c-0.2-0.1-0.5-0.1-0.7,0.2
	c-0.1,0.2-0.1,0.5,0.2,0.7l4,2.4c0,0.3-0.1,0.6-0.4,0.9c-0.2,0.2-0.6,0.3-1,0.2l-3-1.6c-0.2-0.1-0.5,0-0.7,0.2
	c-0.1,0.2,0,0.5,0.2,0.7l2.7,1.4c-0.1,0.2-0.3,0.5-0.6,0.6c-0.5,0.3-1.6,0.4-3.3-0.5l0.2-0.2c0.6-0.7,0.5-1.8-0.3-2.5
	c-0.3-0.3-0.8-0.5-1.2-0.4c0,0,0,0,0,0c0.2-0.7,0-1.4-0.6-2c-0.3-0.3-0.8-0.5-1.2-0.4c0,0,0,0,0,0c0.1-0.6-0.1-1.3-0.6-1.7
	c-0.3-0.3-0.8-0.5-1.2-0.4c-0.4,0-0.9,0.3-1.1,0.6l-0.4,0.5c-0.1-0.3-0.3-0.7-0.6-1c-0.3-0.3-0.8-0.5-1.2-0.4
	c-0.4,0-0.8,0.2-1.1,0.6L13.4,26l3.7-6.6c0.7,0.4,2,1,3,1.1l-1.5,2.7c-0.1,0.2-0.4,1,0.1,1.6c0.3,0.4,0.8,0.5,1.5,0.3
	c1.7-0.4,3.1-2.1,3.4-2.5c0.3-0.2,0.7-0.4,0.9-0.4c0.6,0.3,8.7,5,9.7,6.5C34.5,29.4,34.6,29.9,34.3,30.2z M34.6,27.8
	c-2-2.1-9.4-6.3-9.7-6.5c-0.7-0.3-1.6,0.3-1.9,0.5c0,0-0.1,0.1-0.1,0.1c0,0-1.4,1.9-2.9,2.2c-0.4,0.1-0.5,0-0.5,0c0-0.1,0-0.3,0-0.5
	l1.9-3.4c0,0,0.1,0,0.1,0c0.4-0.2,1-0.6,3.3-1.1c1.7-0.4,3,0,4.2,0.3c1.3,0.3,2.5,0.7,3.9,0.1l3.7,6.6L34.6,27.8z M40.2,26.3
	l-1.1,0.7c-0.1,0.1-0.3,0.1-0.4,0.1c-0.2,0-0.3-0.2-0.4-0.3l-4.6-8.2l0,0l0,0l-0.4-0.7c-0.2-0.4-0.1-0.8,0.2-1.1l1.1-0.7
	c0.1-0.1,0.2-0.1,0.3-0.1c0,0,0.1,0,0.1,0c0.2,0,0.3,0.2,0.4,0.3l5,8.9C40.6,25.6,40.5,26.1,40.2,26.3z"/>
</svg>
