<?xml version="1.0" encoding="utf-8"?>
<!-- Generator: Adobe Illustrator 21.0.0, SVG Export Plug-In . SVG Version: 6.00 Build 0)  -->
<svg version="1.1" id="Capa_1" xmlns="http://www.w3.org/2000/svg" xmlns:xlink="http://www.w3.org/1999/xlink" x="0px" y="0px"
	 width="30px" height="60px" viewBox="0 0 30 60" style="enable-background:new 0 0 30 60;" xml:space="preserve">
<style type="text/css">
	.st0{fill:#AF995A;}
	.st1{fill:#FFFFFF;}
</style>
<circle class="st0" cx="15" cy="45" r="15"/>
<g>
	<path class="st0" d="M22.5,15.9v5.2h-3v-4.9c0-1.2-0.4-2.1-1.5-2.1c-0.8,0-1.3,0.6-1.5,1.1c-0.1,0.2-0.1,0.5-0.1,0.7v5.1h-3
		c0,0,0-8.3,0-9.1h3v1.3c0,0,0,0,0,0h0v0c0.4-0.6,1.1-1.5,2.7-1.5C21,11.8,22.5,13.1,22.5,15.9L22.5,15.9z M10.2,7.6
		c-1,0-1.7,0.7-1.7,1.6c0,0.9,0.7,1.6,1.7,1.6h0c1,0,1.7-0.7,1.7-1.6C11.8,8.3,11.2,7.6,10.2,7.6L10.2,7.6z M8.7,21.1h3V12h-3V21.1z
		"/>
</g>
<g>
	<path class="st0" d="M15,2c7.2,0,13,5.8,13,13s-5.8,13-13,13S2,22.2,2,15S7.8,2,15,2 M15,0C6.7,0,0,6.7,0,15s6.7,15,15,15
		s15-6.7,15-15S23.3,0,15,0L15,0z"/>
</g>
<g>
	<path class="st1" d="M22.5,45.9v5.2h-3v-4.9c0-1.2-0.4-2.1-1.5-2.1c-0.8,0-1.3,0.6-1.5,1.1c-0.1,0.2-0.1,0.5-0.1,0.7v5.1h-3
		c0,0,0-8.3,0-9.1h3v1.3c0,0,0,0,0,0h0v0c0.4-0.6,1.1-1.5,2.7-1.5C21,41.8,22.5,43.1,22.5,45.9L22.5,45.9z M10.2,37.6
		c-1,0-1.7,0.7-1.7,1.6c0,0.9,0.7,1.6,1.7,1.6h0c1,0,1.7-0.7,1.7-1.6C11.8,38.3,11.2,37.6,10.2,37.6L10.2,37.6z M8.7,51.1h3V42h-3
		V51.1z"/>
</g>
</svg>
