<?xml version="1.0" encoding="utf-8"?>
<!-- Generator: Adobe Illustrator 21.0.0, SVG Export Plug-In . SVG Version: 6.00 Build 0)  -->
<svg version="1.1" id="Capa_1" xmlns="http://www.w3.org/2000/svg" xmlns:xlink="http://www.w3.org/1999/xlink" x="0px" y="0px"
	 width="30px" height="60px" viewBox="0 0 30 60" style="enable-background:new 0 0 30 60;" xml:space="preserve">
<style type="text/css">
	.st0{fill:#AF995A;}
	.st1{fill:#FFFFFF;}
</style>
<g>
	<path class="st0" d="M15,59C7.3,59,1,52.7,1,45s6.3-14,14-14s14,6.3,14,14S22.7,59,15,59z"/>
	<path class="st0" d="M15,32c7.2,0,13,5.8,13,13s-5.8,13-13,13S2,52.2,2,45S7.8,32,15,32 M15,30C6.7,30,0,36.7,0,45s6.7,15,15,15
		s15-6.7,15-15S23.3,30,15,30L15,30z"/>
</g>
<path class="st1" d="M19.6,37.5h-9.2c-1.6,0-2.9,1.3-2.9,2.9v3.1v6.1c0,1.6,1.3,2.9,2.9,2.9h9.2c1.6,0,2.9-1.3,2.9-2.9v-6.1v-3.1
	C22.5,38.8,21.2,37.5,19.6,37.5z M20.4,39.2l0.3,0v0.3v2.2l-2.5,0l0-2.5L20.4,39.2z M12.9,43.5c0.5-0.7,1.3-1.1,2.1-1.1
	c0.9,0,1.7,0.4,2.1,1.1c0.3,0.4,0.5,1,0.5,1.5c0,1.5-1.2,2.6-2.6,2.6c-1.5,0-2.6-1.2-2.6-2.6C12.4,44.4,12.5,43.9,12.9,43.5z
	 M20.7,49.3c0,0.8-0.6,1.4-1.4,1.4h-8.6c-0.8,0-1.4-0.6-1.4-1.4v-5.8h1.9c-0.2,0.5-0.3,1-0.3,1.5c0,2.3,1.8,4.1,4.1,4.1
	s4.1-1.8,4.1-4.1c0-0.5-0.1-1.1-0.3-1.5h1.9V49.3z"/>
<g>
	<path class="st0" d="M15,2c7.2,0,13,5.8,13,13s-5.8,13-13,13S2,22.2,2,15S7.8,2,15,2 M15,0C6.7,0,0,6.7,0,15s6.7,15,15,15
		s15-6.7,15-15S23.3,0,15,0L15,0z"/>
</g>
<g>
	<path class="st0" d="M8.5,12.5v-2.1c0-1,0.9-1.9,1.9-1.9h6.8l0,3.6c-0.6-0.5-1.4-0.8-2.2-0.8c-1,0-1.9,0.4-2.6,1.1H8.5z"/>
	<path class="st0" d="M16.2,9.5l0,1c-0.4-0.1-0.8-0.2-1.2-0.2c-1.1,0-2.2,0.4-3,1.1h-0.8H9.5v-1.1c0-0.5,0.4-0.9,0.9-0.9H16.2
		 M19.6,7.5h-9.2c-1.6,0-2.9,1.3-2.9,2.9v3.1v6.1c0,1.6,1.3,2.9,2.9,2.9h9.2c1.6,0,2.9-1.3,2.9-2.9v-6.1v-3.1
		C22.5,8.8,21.2,7.5,19.6,7.5L19.6,7.5z M18.2,11.8l0-2.5l2.2,0l0.3,0v0.3v2.2L18.2,11.8L18.2,11.8z M15,17.6
		c-1.5,0-2.6-1.2-2.6-2.6c0-0.6,0.2-1.1,0.5-1.5c0.5-0.7,1.3-1.1,2.1-1.1c0.9,0,1.7,0.4,2.1,1.1c0.3,0.4,0.5,1,0.5,1.5
		C17.6,16.5,16.5,17.6,15,17.6L15,17.6z M15,19.1c2.3,0,4.1-1.8,4.1-4.1c0-0.5-0.1-1.1-0.3-1.5h1.9v5.8c0,0.8-0.6,1.4-1.4,1.4h-8.6
		c-0.8,0-1.4-0.6-1.4-1.4v-5.8h1.9c-0.2,0.5-0.3,1-0.3,1.5C10.9,17.3,12.7,19.1,15,19.1L15,19.1z"/>
</g>
</svg>
