<?xml version="1.0" encoding="utf-8"?>
<!-- Generator: Adobe Illustrator 21.0.0, SVG Export Plug-In . SVG Version: 6.00 Build 0)  -->
<svg version="1.1" id="Layer_1" xmlns="http://www.w3.org/2000/svg" xmlns:xlink="http://www.w3.org/1999/xlink" x="0px" y="0px"
	 width="480px" height="314px" viewBox="0 0 480 314" style="enable-background:new 0 0 480 314;" xml:space="preserve">
<style type="text/css">
	.st0{fill:#666666;}
	.st1{fill:#FFFFFF;}
	.st2{fill:#AF995A;}
</style>
<g>
	<g>
		<path class="st0" d="M161.7,309.4h1.7v1c0,1.4,2,2,3.6,2c1.8,0,3.2-0.7,3.2-2.2c0-1.6-1.8-2.1-3.7-2.9c-2.1-0.8-4.3-1.7-4.3-4.1
			c0-2.5,2.5-3.7,4.8-3.7c1.9,0,4.6,0.8,4.6,2.7v1.6h-1.7v-1c0-1-1.4-1.7-2.8-1.7c-1.5,0-2.9,0.7-2.9,2c0,1.5,1.7,2.1,3.5,2.8
			c2.1,0.7,4.5,1.7,4.5,4.2c0,2.4-2.1,3.9-5.2,3.9c-2.6,0-5.2-1.2-5.2-3.3V309.4z"/>
		<path class="st0" d="M176.8,312.1h2.3v-10.8h-2.5v-1.5h4.4v12.3h2.3v1.5h-6.6V312.1z M179,294.3h2.1v2.3H179V294.3z"/>
		<path class="st0" d="M187.5,312.1h2.3V302c0-0.4-0.2-0.6-0.6-0.6h-1.9v-1.5h2.6c1.1,0,1.7,0.5,1.7,1.5v0.8c0,0.3,0,0.5-0.1,0.7
			l-0.1,0.3h0.1c0.4-1,2.2-3.7,5.6-3.7c3.4,0,4.6,2,4.6,5.4v7.3h2.3v1.5H200v-8.3c0-2.2-0.4-4.1-3-4.1c-3.1,0-5.3,2.7-5.3,5.8v5.1
			h2.3v1.5h-6.6V312.1z"/>
		<path class="st0" d="M215.3,299.5c1.8,0,5.1,0.7,5.1,3v1.5h-1.7v-1c0-1.2-2.1-1.8-3.4-1.8c-3,0-5.3,2.2-5.3,5.6
			c0,3.4,2.5,5.6,5.4,5.6c2.7,0,4.4-1.7,4.5-1.9l0.8,1.4c-0.3,0.3-2.2,2.1-5.4,2.1c-4,0-7.3-2.8-7.3-7.2
			C208.1,302.5,211.4,299.5,215.3,299.5z"/>
		<path class="st0" d="M232.2,299.5c3.8,0,5.8,2.9,5.8,6.4c0,0.2,0,0.4,0,0.6l-0.1,0.3h-10.6c0.1,3.6,2.5,5.6,5.4,5.6
			c1.3,0,2.3-0.4,3.1-0.8c0.4-0.2,0.8-0.5,1.2-0.8l0.9,1.4c-0.4,0.4-0.9,0.7-1.4,1c-0.9,0.5-2.2,1-3.7,1c-4.1,0-7.2-3-7.2-7.2
			C225.3,302.2,228.4,299.5,232.2,299.5z M236,305.4c-0.1-2.9-1.9-4.3-3.9-4.3c-2.3,0-4.3,1.5-4.8,4.3H236z"/>
		<path class="st0" d="M251.8,313.7c-0.1-0.4-0.1-0.8-0.1-1.2c0-6.8,10-7.6,10-13c0-2.1-1.6-3.7-4-3.7c-1.4,0-2.5,0.7-3.2,1.3
			c-0.4,0.4-0.8,0.8-1.1,1.3l-1.4-0.9c0.4-0.7,0.8-1.2,1.4-1.8c1-0.9,2.4-1.7,4.5-1.7c3.7,0,5.9,2.4,5.9,5.4c0,6.4-9.9,7.4-9.9,12.6
			h9.1v-2.7h1.8v4.3H251.8z"/>
		<path class="st0" d="M270,304c0-5.6,1.6-10,6.7-10c5.1,0,6.7,4.4,6.7,10c0,5.6-1.6,10-6.7,10C271.7,314,270,309.6,270,304z
			 M281.4,304c0-4.6-1-8.2-4.7-8.2c-3.6,0-4.7,3.6-4.7,8.2c0,4.7,1,8.3,4.7,8.3C280.4,312.2,281.4,308.6,281.4,304z"/>
		<path class="st0" d="M288.6,312h4.3v-14.3c0-0.3,0-0.5,0-0.7v-0.3h-0.1l-0.2,0.3c-0.1,0.2-0.4,0.5-0.8,0.9l-2.1,2l-1.2-1.2
			l4.4-4.4h1.8V312h4.2v1.7h-10.5V312z"/>
		<path class="st0" d="M303.6,304c0-5.6,1.6-10,6.7-10c5.1,0,6.7,4.4,6.7,10c0,5.6-1.6,10-6.7,10C305.3,314,303.6,309.6,303.6,304z
			 M315,304c0-4.6-1-8.2-4.7-8.2c-3.6,0-4.7,3.6-4.7,8.2c0,4.7,1,8.3,4.7,8.3C314,312.2,315,308.6,315,304z"/>
	</g>
	<g>
		<path class="st1" d="M48.3,157.1h4.2v-27h-4.2v-2.7h14.7c2,0,4,0.2,5.5,0.9c3.2,1.4,5.2,4.6,5.2,8.8c0,4.5-2.2,7.9-5.9,9.2
			c-1.5,0.5-3,0.6-4.8,0.6h-7.3v10.1h4.2v2.7H48.3V157.1z M62.7,144.2c1.6,0,2.8-0.2,3.9-0.6c2.4-1,3.8-3.3,3.8-6.4
			c0-2.9-1.2-5.1-3.4-6.2c-1.2-0.5-2.7-0.8-4.4-0.8h-7v14H62.7z"/>
		<path class="st1" d="M81.2,157.1h4.2v-26.9h-4.2v-2.8h11.7v2.8h-4.2V157h12.9v-5.4h2.9v8.1H81.2V157.1z"/>
		<path class="st1" d="M109.8,157.1h3.3l10.9-29.6h3.5l10.9,29.6h3.3v2.7h-10.3v-2.7h3.7l-3.1-8.3h-12.6l-3,8.3h3.7v2.7h-10.3V157.1
			z M131.2,146.1l-4.8-13.2c-0.2-0.6-0.2-1.1-0.4-1.4l-0.1-0.6h-0.1c0,0.2,0,0.4-0.1,0.6c-0.1,0.4-0.2,0.9-0.4,1.4l-4.9,13.2H131.2z
			"/>
		<path class="st1" d="M152.4,157.1h4.2v-26.9h-9v5.2h-2.9v-8h27.1v8h-2.9v-5.2h-9v26.9h4.2v2.7h-11.7V157.1z"/>
		<path class="st1" d="M179.1,157.1h4.2v-27h-4.2v-2.7h11.7v2.7h-4.2v27h4.2v2.7h-11.7V157.1z"/>
		<path class="st1" d="M199.2,157.1h4.2v-27h-4.2v-2.7h7.3l18.1,25.5c0.2,0.3,0.4,0.7,0.6,1.2c0.1,0.2,0.2,0.5,0.3,0.7h0.1l-0.1-0.8
			c0-0.5,0-1.1,0-1.5v-22.5h-4.3v-2.7H233v2.7h-4.2v29.6h-3.1l-18.1-25.5c-0.2-0.4-0.5-0.9-0.6-1.3c-0.1-0.2-0.2-0.5-0.3-0.7h-0.1
			l0.1,0.8c0,0.5,0.1,1,0,1.4v22.6h4.3v2.7h-11.7V157.1z"/>
		<path class="st1" d="M244.1,130.1h-4.2v-2.7h11.7v2.7h-4.2v17.7c0,2.3,0.5,4.4,1.4,5.9c1.5,2.3,4.3,3.6,7.8,3.6
			c3.5,0,6.3-1.3,7.8-3.8c1-1.6,1.4-3.6,1.4-5.9v-17.6h-4.2v-2.7h11.7v2.7h-4.2v17.7c0,3-0.7,5.6-2.1,7.6c-2.2,3.1-5.9,4.8-10.3,4.8
			c-4.5,0-8.4-1.7-10.4-4.9c-1.4-2-2-4.5-2-7.6V130.1z"/>
		<path class="st1" d="M279.8,157.1h4.2l2.2-27h-4.3v-2.7h7.8l9.4,21.1c0.2,0.5,0.3,1,0.5,1.3l0.2,0.6h0.1c0-0.2,0.1-0.4,0.2-0.6
			c0.1-0.3,0.3-0.8,0.5-1.3l9.4-21.1h7.7v2.7h-4.2l2.1,27h4.2v2.7h-11.5v-2.7h4.1l-1.7-22.3c0-0.4,0-1,0-1.5c0-0.3,0-0.5,0-0.8h-0.1
			l-0.2,0.8c-0.1,0.5-0.3,1-0.5,1.4l-8.6,18.9h-3l-8.6-18.9c-0.1-0.4-0.3-0.9-0.5-1.4c-0.1-0.3-0.1-0.6-0.2-0.8h-0.1
			c0,0.3,0,0.6,0,0.8c0,0.5,0.1,1.1,0,1.5l-1.7,22.3h4.1v2.7h-11.5V157.1z"/>
		<path class="st1" d="M342.2,157.1h4.2v-27h-4.2v-2.7h11.7v2.7h-4.2v27h4.2v2.7h-11.7V157.1z"/>
		<path class="st1" d="M362.2,157.1h4.2v-27h-4.2v-2.7h7.3l18.1,25.5c0.2,0.3,0.4,0.7,0.6,1.2c0.1,0.2,0.2,0.5,0.3,0.7h0.1l-0.1-0.8
			c0-0.5,0-1.1,0-1.5v-22.5h-4.3v-2.7H396v2.7h-4.2v29.6h-3.1l-18.1-25.5c-0.2-0.4-0.5-0.9-0.6-1.3c-0.1-0.2-0.2-0.5-0.3-0.7h-0.1
			l0.1,0.8c0,0.5,0.1,1,0,1.4v22.6h4.3v2.7h-11.7V157.1z"/>
		<path class="st1" d="M403.9,157.1h4.2v-27h-4.2v-2.7h11.4v2.7h-4v11.4h4.7l7.9-11.4h-3.2v-2.7h10v2.7h-3.3l-8.9,12.5v0.1l0.5,0.4
			c0.3,0.3,0.7,0.7,1.1,1.5l6.6,11.2c0.6,0.9,1.1,1.3,2.4,1.3h1.6v2.7h-2.4c-2.7,0-3.4-0.6-4.5-2.4l-6.8-11.6
			c-0.5-1-1.1-1.4-2.6-1.4h-3.3v12.8h4.2v2.7h-11.6V157.1z"/>
	</g>
	<g>
		<path class="st0" d="M0,192.8h2.5v-16.2H0V175h8.2c1.7,0,2.8,0.1,4.1,0.5c3.7,1.2,6,4.5,6,9.2c0,4.8-2.3,8-6.2,9.2
			c-1.2,0.4-2.5,0.5-3.9,0.5H0V192.8z M8,192.7c1.3,0,2.4-0.1,3.4-0.5c3-1,4.8-3.6,4.8-7.5c0-3.9-1.8-6.6-4.7-7.6
			c-1.1-0.4-2.2-0.4-3.6-0.4H4.5v16H8z"/>
		<path class="st0" d="M30.1,180.2c3.8,0,5.8,2.9,5.8,6.4c0,0.2,0,0.4,0,0.6l-0.1,0.3H25.2c0.1,3.6,2.5,5.6,5.4,5.6
			c1.3,0,2.3-0.4,3.1-0.8c0.4-0.2,0.8-0.5,1.2-0.8l0.9,1.4c-0.4,0.4-0.9,0.7-1.4,1c-0.9,0.5-2.2,1-3.7,1c-4.1,0-7.2-3-7.2-7.2
			C23.2,182.9,26.3,180.2,30.1,180.2z M33.9,186.1c-0.1-2.9-1.9-4.3-3.9-4.3c-2.3,0-4.3,1.5-4.8,4.3H33.9z"/>
		<path class="st0" d="M40.5,190.1h1.7v1c0,1.4,2,2,3.6,2c1.8,0,3.2-0.7,3.2-2.2c0-1.6-1.8-2.1-3.7-2.9c-2.1-0.8-4.3-1.7-4.3-4.1
			c0-2.5,2.5-3.7,4.8-3.7c1.9,0,4.6,0.8,4.6,2.7v1.6h-1.7v-1c0-1-1.4-1.7-2.8-1.7c-1.5,0-2.9,0.7-2.9,2c0,1.5,1.7,2.1,3.5,2.8
			c2.1,0.7,4.5,1.7,4.5,4.2c0,2.4-2.1,3.9-5.2,3.9c-2.6,0-5.2-1.2-5.2-3.3V190.1z"/>
		<path class="st0" d="M55.5,192.8h2.3v-10.8h-2.5v-1.5h4.4v12.3h2.3v1.5h-6.6V192.8z M57.7,175h2.1v2.3h-2.1V175z"/>
		<path class="st0" d="M68.1,197.5c0.3,0.2,0.7,0.4,1.1,0.5c0.7,0.2,1.6,0.5,2.6,0.5c2.7,0,4.8-1.3,4.8-4.4v-1.4
			c0-0.3,0-0.5,0.1-0.7c0-0.1,0-0.2,0-0.3h-0.1c-0.9,1.5-2.2,2.5-4.4,2.5c-3.7,0-6.2-2.9-6.2-7.1c0-4.2,2.3-7,6-7
			c2,0,3.9,0.7,4.7,2.5h0.1c0,0,0-0.1,0-0.1c0-0.1,0-0.2,0-0.5c0-1,0.4-1.5,1.6-1.5h2.5v1.5h-1.7c-0.4,0-0.6,0.2-0.6,0.6v11.4
			c0,4.4-3.2,6.1-6.7,6.1c-1.6,0-3.2-0.4-4.5-1.1L68.1,197.5z M76.8,187.2c0-4-2-5.3-4.4-5.3c-2.7,0-4.3,2-4.3,5.3
			c0,3.3,1.8,5.5,4.5,5.5C74.8,192.6,76.8,191.3,76.8,187.2z"/>
		<path class="st0" d="M85,192.8h2.3v-10.2c0-0.4-0.2-0.6-0.6-0.6h-1.9v-1.5h2.6c1.1,0,1.7,0.5,1.7,1.5v0.8c0,0.3,0,0.5-0.1,0.7
			l-0.1,0.3h0.1c0.4-1,2.2-3.7,5.6-3.7c3.4,0,4.6,2,4.6,5.4v7.3h2.3v1.5h-4.2v-8.3c0-2.2-0.4-4.1-3-4.1c-3.1,0-5.3,2.7-5.3,5.8v5.1
			h2.3v1.5H85V192.8z"/>
	</g>
	<g>
		<path class="st0" d="M147.4,192.8h2l6.5-17.8h2.1l6.5,17.8h2v1.6h-6.2v-1.6h2.2l-1.8-5h-7.5l-1.8,5h2.2v1.6h-6.2V192.8z
			 M160.2,186.2l-2.9-7.9c-0.1-0.3-0.1-0.6-0.2-0.9L157,177h-0.1c0,0.1,0,0.2-0.1,0.4c-0.1,0.2-0.1,0.5-0.2,0.9l-2.9,7.9H160.2z"/>
		<path class="st0" d="M176.3,180.2c1.6,0,2.8,0.7,3.5,1.3c0.4,0.4,0.8,0.9,1,1.3h0.1c0-0.1,0-0.2,0-0.3c0-0.2-0.1-0.5-0.1-0.8v-5.3
			h-2.5V175h4.4v17.2c0,0.4,0.2,0.6,0.6,0.6h1.5v1.5h-2.3c-1.2,0-1.7-0.5-1.7-1.5v-0.2c0-0.2,0-0.4,0.1-0.6l0.1-0.2h-0.1
			c-0.2,0.5-0.6,1-1,1.5c-0.8,0.7-2,1.5-3.8,1.5c-3.7,0-6-3-6-7.2C170,183,172.6,180.2,176.3,180.2z M176.4,193
			c2.3,0,4.5-1.7,4.5-5.6c0-2.8-1.4-5.6-4.4-5.6c-2.5,0-4.5,2-4.5,5.6C172,190.9,173.8,193,176.4,193z"/>
		<path class="st0" d="M187.8,180.5h5.7v1.5h-2l3.5,9.3c0.1,0.2,0.1,0.5,0.2,0.7c0,0.1,0.1,0.2,0.1,0.4h0.1c0-0.1,0-0.2,0.1-0.4
			c0.1-0.2,0.1-0.5,0.2-0.7l3.5-9.3h-2v-1.5h5.7v1.5h-1.8l-4.7,12.3h-2l-4.7-12.3h-1.8V180.5z"/>
		<path class="st0" d="M213.2,180.2c3.8,0,5.8,2.9,5.8,6.4c0,0.2,0,0.4,0,0.6l-0.1,0.3h-10.6c0.1,3.6,2.5,5.6,5.4,5.6
			c1.3,0,2.3-0.4,3.1-0.8c0.4-0.2,0.8-0.5,1.2-0.8l0.9,1.4c-0.4,0.4-0.9,0.7-1.4,1c-0.9,0.5-2.2,1-3.7,1c-4.1,0-7.2-3-7.2-7.2
			C206.3,182.9,209.4,180.2,213.2,180.2z M217,186.1c-0.1-2.9-1.9-4.3-3.9-4.3c-2.3,0-4.3,1.5-4.8,4.3H217z"/>
		<path class="st0" d="M223.7,192.8h2.1v-10.2c0-0.4-0.2-0.6-0.6-0.6h-1.9v-1.5h2.6c1.2,0,1.7,0.5,1.7,1.6v0.9c0,0.3,0,0.6,0,0.7
			c0,0.1,0,0.2,0,0.3h0.1c0.7-2.1,2.2-3.7,4.4-3.7c0.2,0,0.4,0,0.5,0l0.2,0.1v1.8c-0.1,0-0.1,0-0.2,0c-0.1,0-0.2,0-0.5,0
			c-3.1,0-4.4,3.5-4.4,6.2v4.3h2.1v1.5h-6.2V192.8z"/>
		<path class="st0" d="M238.4,182.1h-2.5v-1.5h2.5v-3.8h1.8v3.8h3.5v1.5h-3.5v7.1c0,3.2,2.1,3.7,3.1,3.7c0.2,0,0.4,0,0.5,0
			c0.1,0,0.1,0,0.2,0v1.6c-0.1,0-0.1,0-0.2,0c-0.1,0-0.3,0-0.6,0c-1.6,0-4.8-0.5-4.8-5.1V182.1z"/>
		<path class="st0" d="M248.1,192.8h2.3v-10.8h-2.5v-1.5h4.3v12.3h2.3v1.5h-6.6V192.8z M250.3,175h2.1v2.3h-2.1V175z"/>
		<path class="st0" d="M258.7,190.1h1.7v1c0,1.4,2,2,3.6,2c1.8,0,3.2-0.7,3.2-2.2c0-1.6-1.8-2.1-3.7-2.9c-2.1-0.8-4.3-1.7-4.3-4.1
			c0-2.5,2.5-3.7,4.8-3.7c1.9,0,4.6,0.8,4.6,2.7v1.6h-1.7v-1c0-1-1.4-1.7-2.8-1.7c-1.5,0-2.9,0.7-2.9,2c0,1.5,1.7,2.1,3.5,2.8
			c2.1,0.7,4.5,1.7,4.5,4.2c0,2.4-2.1,3.9-5.2,3.9c-2.6,0-5.2-1.2-5.2-3.3V190.1z"/>
		<path class="st0" d="M273.8,192.8h2.3v-10.8h-2.5v-1.5h4.4v12.3h2.3v1.5h-6.6V192.8z M276,175h2.1v2.3H276V175z"/>
		<path class="st0" d="M284.5,192.8h2.3v-10.2c0-0.4-0.2-0.6-0.6-0.6h-1.9v-1.5h2.6c1.1,0,1.7,0.5,1.7,1.5v0.8c0,0.3,0,0.5-0.1,0.7
			l-0.1,0.3h0.1c0.4-1,2.2-3.7,5.6-3.7c3.4,0,4.6,2,4.6,5.4v7.3h2.3v1.5H297v-8.3c0-2.2-0.4-4.1-3-4.1c-3.1,0-5.3,2.7-5.3,5.8v5.1
			h2.3v1.5h-6.6V192.8z"/>
		<path class="st0" d="M307.2,197.5c0.3,0.2,0.7,0.4,1.1,0.5c0.7,0.2,1.6,0.5,2.6,0.5c2.7,0,4.8-1.3,4.8-4.4v-1.4
			c0-0.3,0-0.5,0.1-0.7c0-0.1,0-0.2,0-0.3h-0.1c-0.9,1.5-2.2,2.5-4.4,2.5c-3.7,0-6.2-2.9-6.2-7.1c0-4.2,2.3-7,6-7
			c2,0,3.9,0.7,4.7,2.5h0.1c0,0,0-0.1,0-0.1c0-0.1,0-0.2,0-0.5c0-1,0.4-1.5,1.6-1.5h2.5v1.5h-1.7c-0.4,0-0.6,0.2-0.6,0.6v11.4
			c0,4.4-3.2,6.1-6.7,6.1c-1.6,0-3.2-0.4-4.5-1.1L307.2,197.5z M315.8,187.2c0-4-2-5.3-4.4-5.3c-2.7,0-4.3,2-4.3,5.3
			c0,3.3,1.8,5.5,4.5,5.5C313.9,192.6,315.8,191.3,315.8,187.2z"/>
	</g>
	<g>
		<path class="st0" d="M358.5,192.8h2.5v-16.2h-2.5V175h8.8c1.2,0,2.4,0.1,3.3,0.6c1.9,0.9,3.1,2.8,3.1,5.3c0,2.7-1.3,4.7-3.5,5.5
			c-0.9,0.3-1.8,0.4-2.9,0.4H363v6.1h2.5v1.6h-7V192.8z M367.2,185.1c0.9,0,1.7-0.1,2.3-0.4c1.4-0.6,2.3-2,2.3-3.9
			c0-1.8-0.7-3-2-3.7c-0.7-0.3-1.6-0.5-2.6-0.5H363v8.4H367.2z"/>
		<path class="st0" d="M378.2,192.8h2.1v-10.2c0-0.4-0.2-0.6-0.6-0.6h-1.9v-1.5h2.6c1.2,0,1.7,0.5,1.7,1.6v0.9c0,0.3,0,0.6,0,0.7
			c0,0.1,0,0.2,0,0.3h0.1c0.7-2.1,2.2-3.7,4.4-3.7c0.2,0,0.4,0,0.5,0l0.2,0.1v1.8c-0.1,0-0.1,0-0.2,0c-0.1,0-0.2,0-0.5,0
			c-3.1,0-4.4,3.5-4.4,6.2v4.3h2.1v1.5h-6.2V192.8z"/>
		<path class="st0" d="M391.1,192.8h2.3v-10.8H391v-1.5h4.4v12.3h2.3v1.5h-6.6V192.8z M393.3,175h2.1v2.3h-2.1V175z"/>
		<path class="st0" d="M401.8,192.8h2.3v-10.2c0-0.4-0.2-0.6-0.6-0.6h-1.9v-1.5h2.6c1.1,0,1.7,0.5,1.7,1.5v0.8c0,0.3,0,0.5-0.1,0.7
			l-0.1,0.3h0.1c0.4-1,2.2-3.7,5.6-3.7c3.4,0,4.6,2,4.6,5.4v7.3h2.3v1.5h-4.2v-8.3c0-2.2-0.4-4.1-3-4.1c-3.1,0-5.3,2.7-5.3,5.8v5.1
			h2.3v1.5h-6.6V192.8z"/>
		<path class="st0" d="M424.1,182.1h-2.5v-1.5h2.5v-3.8h1.8v3.8h3.5v1.5H426v7.1c0,3.2,2.1,3.7,3.1,3.7c0.2,0,0.4,0,0.5,0
			c0.1,0,0.1,0,0.2,0v1.6c-0.1,0-0.1,0-0.2,0c-0.1,0-0.3,0-0.6,0c-1.6,0-4.8-0.5-4.8-5.1V182.1z"/>
		<path class="st0" d="M433.8,192.8h2.3v-10.8h-2.5v-1.5h4.3v12.3h2.3v1.5h-6.6V192.8z M436.1,175h2.1v2.3h-2.1V175z"/>
		<path class="st0" d="M444.6,192.8h2.3v-10.2c0-0.4-0.2-0.6-0.6-0.6h-1.9v-1.5h2.6c1.1,0,1.7,0.5,1.7,1.5v0.8c0,0.3,0,0.5-0.1,0.7
			l-0.1,0.3h0.1c0.4-1,2.2-3.7,5.6-3.7c3.4,0,4.6,2,4.6,5.4v7.3h2.3v1.5h-4.2v-8.3c0-2.2-0.4-4.1-3-4.1c-3.1,0-5.3,2.7-5.3,5.8v5.1
			h2.3v1.5h-6.6V192.8z"/>
		<path class="st0" d="M467.2,197.5c0.3,0.2,0.7,0.4,1.1,0.5c0.7,0.2,1.6,0.5,2.6,0.5c2.7,0,4.8-1.3,4.8-4.4v-1.4
			c0-0.3,0-0.5,0.1-0.7c0-0.1,0-0.2,0-0.3h-0.1c-0.9,1.5-2.2,2.5-4.4,2.5c-3.7,0-6.2-2.9-6.2-7.1c0-4.2,2.3-7,6-7
			c2,0,3.9,0.7,4.7,2.5h0.1c0,0,0-0.1,0-0.1c0-0.1,0-0.2,0-0.5c0-1,0.4-1.5,1.6-1.5h2.5v1.5h-1.7c-0.4,0-0.6,0.2-0.6,0.6v11.4
			c0,4.4-3.2,6.1-6.7,6.1c-1.6,0-3.2-0.4-4.5-1.1L467.2,197.5z M475.8,187.2c0-4-2-5.3-4.4-5.3c-2.7,0-4.3,2-4.3,5.3
			c0,3.3,1.8,5.5,4.5,5.5C473.9,192.6,475.8,191.3,475.8,187.2z"/>
	</g>
	<circle class="st0" cx="124.5" cy="185.7" r="2.3"/>
	<circle class="st0" cx="339.7" cy="185.7" r="2.3"/>
	<g>
		<path class="st0" d="M240.7,107.9c-29.7,0-53.9-24.2-53.9-53.9S210.9,0,240.7,0s53.9,24.2,53.9,53.9S270.4,107.9,240.7,107.9z
			 M240.7,2.3c-28.5,0-51.6,23.2-51.6,51.6s23.2,51.6,51.6,51.6s51.6-23.2,51.6-51.6S269.2,2.3,240.7,2.3z"/>
		<g>
			<path class="st1" d="M254.5,29.1c3.4,0,6.5,1.3,8.9,3.7c2.4,2.3,3.7,5.5,3.7,8.9v6.7c0,3.4-1.3,6.5-3.7,8.8
				c-2.3,2.3-5.5,3.6-8.9,3.6h-13.4v14.9h5.2c0.8,0,1.5,0.7,1.5,1.5c0,0.8-0.7,1.5-1.5,1.5h-23.2c-0.8,0-1.5-0.7-1.5-1.5
				c0-0.8,0.7-1.5,1.5-1.5h4.9V60.8h-4.9c-0.8,0-1.5-0.7-1.5-1.5c0-0.8,0.7-1.5,1.5-1.5h4.9V32.1h-6.2v4.8c0,0.8-0.7,1.5-1.5,1.5
				c-0.8,0-1.5-0.7-1.5-1.5v-6.3c0-0.8,0.7-1.5,1.5-1.5H254.5z M238.1,57.8V32.1h-7v25.7H238.1z M231.1,60.8v14.9h7V60.8H231.1z
				 M244.5,57.8c2.5,0,4.9-1,6.7-2.8c1.8-1.8,2.8-4.1,2.8-6.7v-6.7c0-2.5-1-5-2.8-6.7c-1.8-1.9-4.1-2.8-6.7-2.8h-3.3v25.7H244.5z
				 M264.1,41.7c0-2.5-1-5-2.8-6.7c-1.8-1.9-4.2-2.8-6.7-2.8h-1.9c2.7,2.3,4.4,5.7,4.4,9.6v6.7c0,3.4-1.3,6.5-3.7,8.8l-0.6,0.6h1.9
				c5.3,0,9.6-4.2,9.6-9.4V41.7z"/>
		</g>
	</g>
	<g>
		<path class="st2" d="M309.7,117h2.6L343,63.9c0.2-0.4,0.2-0.8,0-1.1c-0.2-0.4-0.6-0.6-1-0.6h-42.2c-0.1,0.8-0.2,1.5-0.4,2.3H340
			L309.7,117z"/>
		<path class="st2" d="M169,117h2.6l-30.3-52.5H182c-0.1-0.8-0.3-1.5-0.4-2.3h-42.2c-0.4,0-0.8,0.2-1,0.6c-0.2,0.4-0.2,0.8,0,1.1
			L169,117z"/>
		<path class="st2" d="M258,206.5l-17.3,30l-17.3-30h-2.6l19,32.9c0.2,0.4,0.6,0.6,1,0.6s0.8-0.2,1-0.6l19-32.9H258z"/>
	</g>
	<g>
		<path class="st0" d="M148.2,117h2.6l-40.7-70.5h71.3c0.1-0.8,0.2-1.5,0.3-2.3h-73.7c-0.4,0-0.8,0.2-1,0.6c-0.2,0.4-0.2,0.8,0,1.1
			L148.2,117z"/>
		<path class="st0" d="M371.2,46.5L330.5,117h2.6l41-71.1c0.2-0.4,0.2-0.8,0-1.1c-0.2-0.4-0.6-0.6-1-0.6h-73.7
			c0.1,0.8,0.2,1.5,0.3,2.3H371.2z"/>
		<path class="st0" d="M278.8,206.5l-38.1,66.1l-38.1-66.1h-2.6l39.8,68.9c0.2,0.4,0.6,0.6,1,0.6s0.8-0.2,1-0.6l39.8-68.9H278.8z"/>
	</g>
</g>
</svg>
