<?xml version="1.0" encoding="utf-8"?>
<!-- Generator: Adobe Illustrator 21.0.0, SVG Export Plug-In . SVG Version: 6.00 Build 0)  -->
<svg version="1.1" id="Layer_1" xmlns="http://www.w3.org/2000/svg" xmlns:xlink="http://www.w3.org/1999/xlink" x="0px" y="0px"
	 width="230px" height="48px" viewBox="0 0 230 48" style="enable-background:new 0 0 230 48;" xml:space="preserve">
<style type="text/css">
	.st0{fill:#666666;}
	.st1{fill:#FFFFFF;}
</style>
<g>
	<path class="st0" d="M24,48C10.8,48,0,37.2,0,24S10.8,0,24,0s24,10.8,24,24S37.2,48,24,48z M24,1C11.3,1,1,11.3,1,24s10.3,23,23,23
		s23-10.3,23-23S36.7,1,24,1z"/>
	<g>
		<path class="st1" d="M30.1,12.9c1.5,0,2.9,0.6,4,1.7c1.1,1,1.7,2.5,1.7,4v3c0,1.5-0.6,2.9-1.7,3.9c-1,1-2.5,1.6-4,1.6h-6v6.7h2.3
			c0.4,0,0.7,0.3,0.7,0.7c0,0.4-0.3,0.7-0.7,0.7H16.2c-0.4,0-0.7-0.3-0.7-0.7c0-0.4,0.3-0.7,0.7-0.7h2.2v-6.7h-2.2
			c-0.4,0-0.7-0.3-0.7-0.7c0-0.4,0.3-0.7,0.7-0.7h2.2V14.3h-2.8v2.1c0,0.4-0.3,0.7-0.7,0.7c-0.4,0-0.7-0.3-0.7-0.7v-2.8
			c0-0.4,0.3-0.7,0.7-0.7H30.1z M22.8,25.7V14.3h-3.1v11.5H22.8z M19.7,27.1v6.7h3.1v-6.7H19.7z M25.7,25.7c1.1,0,2.2-0.4,3-1.2
			c0.8-0.8,1.2-1.8,1.2-3v-3c0-1.1-0.4-2.2-1.3-3c-0.8-0.8-1.8-1.3-3-1.3h-1.5v11.5H25.7z M34.4,18.5c0-1.1-0.4-2.2-1.3-3
			c-0.8-0.8-1.9-1.3-3-1.3h-0.9c1.2,1,2,2.5,2,4.3v3c0,1.5-0.6,2.9-1.7,3.9l-0.3,0.3h0.8c2.4,0,4.3-1.9,4.3-4.2V18.5z"/>
	</g>
	<g>
		<path class="st1" d="M59.4,29.9h1.9v-12h-1.9v-1.2h6.6c0.9,0,1.8,0.1,2.5,0.4c1.4,0.6,2.3,2,2.3,3.9c0,2-1,3.5-2.6,4.1
			c-0.7,0.2-1.3,0.3-2.1,0.3h-3.3v4.5h1.9v1.2h-5.2V29.9z M65.8,24.2c0.7,0,1.3-0.1,1.7-0.3c1.1-0.4,1.7-1.5,1.7-2.9
			c0-1.3-0.5-2.3-1.5-2.7c-0.5-0.2-1.2-0.3-1.9-0.3h-3.1v6.2H65.8z"/>
		<path class="st1" d="M74.1,29.9h1.9v-12h-1.9v-1.2h5.2v1.2h-1.9v11.9h5.8v-2.4h1.3v3.6H74.1V29.9z"/>
		<path class="st1" d="M86.8,29.9h1.5l4.9-13.2h1.6l4.9,13.2h1.5v1.2h-4.6v-1.2h1.7l-1.4-3.7h-5.6l-1.4,3.7h1.7v1.2h-4.6V29.9z
			 M96.4,25l-2.2-5.9c-0.1-0.2-0.1-0.5-0.2-0.6L94,18.2h-0.1c0,0.1,0,0.2,0,0.3c-0.1,0.2-0.1,0.4-0.2,0.6L91.5,25H96.4z"/>
		<path class="st1" d="M105.8,29.9h1.9v-12h-4v2.3h-1.3v-3.6h12.1v3.6h-1.3v-2.3h-4v12h1.9v1.2h-5.2V29.9z"/>
		<path class="st1" d="M117.8,29.9h1.9v-12h-1.9v-1.2h5.2v1.2h-1.9v12h1.9v1.2h-5.2V29.9z"/>
		<path class="st1" d="M126.7,29.9h1.9v-12h-1.9v-1.2h3.3L138,28c0.1,0.1,0.2,0.3,0.3,0.6c0.1,0.1,0.1,0.2,0.1,0.3h0l0-0.3
			c0-0.2,0-0.5,0-0.7V17.9h-1.9v-1.2h5.2v1.2h-1.9v13.2h-1.4l-8.1-11.4c-0.1-0.2-0.2-0.4-0.3-0.6c-0.1-0.1-0.1-0.2-0.1-0.3h0l0,0.3
			c0,0.2,0,0.4,0,0.6v10.1h1.9v1.2h-5.2V29.9z"/>
		<path class="st1" d="M146.7,17.9h-1.9v-1.2h5.2v1.2h-1.9v7.9c0,1,0.2,2,0.6,2.6c0.7,1,1.9,1.6,3.5,1.6c1.6,0,2.8-0.6,3.5-1.7
			c0.4-0.7,0.6-1.6,0.6-2.6v-7.8h-1.9v-1.2h5.2v1.2h-1.9v7.9c0,1.3-0.3,2.5-0.9,3.4c-1,1.4-2.6,2.2-4.6,2.2c-2,0-3.7-0.8-4.6-2.2
			c-0.6-0.9-0.9-2-0.9-3.4V17.9z"/>
		<path class="st1" d="M162.6,29.9h1.9l1-12h-1.9v-1.2h3.5l4.2,9.4c0.1,0.2,0.1,0.5,0.2,0.6l0.1,0.2h0c0-0.1,0-0.2,0.1-0.2
			c0.1-0.1,0.1-0.4,0.2-0.6l4.2-9.4h3.4v1.2h-1.9l0.9,12h1.9v1.2h-5.1v-1.2h1.8l-0.8-9.9c0-0.2,0-0.4,0-0.7c0-0.1,0-0.2,0-0.4h0
			l-0.1,0.3c-0.1,0.2-0.1,0.4-0.2,0.6l-3.8,8.4h-1.3l-3.9-8.4c-0.1-0.2-0.1-0.4-0.2-0.6c0-0.1-0.1-0.2-0.1-0.3h-0.1
			c0,0.1,0,0.2,0,0.4c0,0.2,0,0.5,0,0.7l-0.8,9.9h1.8v1.2h-5.1V29.9z"/>
		<path class="st1" d="M190.5,29.9h1.9v-12h-1.9v-1.2h5.2v1.2h-1.9v12h1.9v1.2h-5.2V29.9z"/>
		<path class="st1" d="M199.4,29.9h1.9v-12h-1.9v-1.2h3.3l8.1,11.4c0.1,0.1,0.2,0.3,0.3,0.6c0.1,0.1,0.1,0.2,0.1,0.3h0l0-0.3
			c0-0.2,0-0.5,0-0.7V17.9h-1.9v-1.2h5.2v1.2h-1.9v13.2h-1.4l-8.1-11.4c-0.1-0.2-0.2-0.4-0.3-0.6c-0.1-0.1-0.1-0.2-0.1-0.3h0l0,0.3
			c0,0.2,0,0.4,0,0.6v10.1h1.9v1.2h-5.2V29.9z"/>
		<path class="st1" d="M218,29.9h1.9v-12H218v-1.2h5.1v1.2h-1.8v5.1h2.1l3.5-5.1h-1.4v-1.2h4.5v1.2h-1.5l-4,5.6v0l0.2,0.2
			c0.1,0.1,0.3,0.3,0.5,0.7l2.9,5c0.2,0.4,0.5,0.6,1.1,0.6h0.7v1.2h-1.1c-1.2,0-1.5-0.3-2-1.1l-3-5.2c-0.2-0.4-0.5-0.6-1.1-0.6h-1.5
			v5.7h1.9v1.2H218V29.9z"/>
	</g>
</g>
</svg>
