<?xml version="1.0" encoding="utf-8"?>
<!-- Generator: Adobe Illustrator 21.0.0, SVG Export Plug-In . SVG Version: 6.00 Build 0)  -->
<svg version="1.1" id="Layer_1" xmlns="http://www.w3.org/2000/svg" xmlns:xlink="http://www.w3.org/1999/xlink" x="0px" y="0px"
	 width="50px" height="50px" viewBox="0 0 50 50" style="enable-background:new 0 0 50 50;" xml:space="preserve">
<style type="text/css">
	.st0{fill:#AF995A;}
	.st1{fill:#FFFFFF;}
</style>
<circle class="st0" cx="25" cy="25" r="25"/>
<g>
	<path class="st1" d="M28.1,27.7c1.7-0.9,2.7-2.8,2.7-5.2c0-3.2-2.6-5.8-5.8-5.8s-5.8,2.6-5.8,5.8c0,2.4,1,4.2,2.7,5.2
		c-2.4,1-3.9,3.4-3.9,6.5V36c0,0.3,0.2,0.5,0.5,0.5S19,36.3,19,36v-1.8c0-3.3,1.9-5.6,4.9-5.9c0.3,0,0.5-0.3,0.5-0.6
		c0-0.3-0.2-0.4-0.5-0.5l0,0c-2.2-0.2-3.7-2.1-3.7-4.7c0-2.6,2.2-4.7,4.8-4.7s4.8,2.1,4.8,4.7c0,2.6-1.4,4.5-3.7,4.7l0,0
		c-0.2,0-0.4,0.2-0.5,0.5c0,0.3,0.2,0.5,0.5,0.6c2.9,0.3,4.9,2.6,4.9,5.9V36c0,0.3,0.2,0.5,0.5,0.5c0.3,0,0.5-0.2,0.5-0.5v-1.8
		C32,31.1,30.5,28.7,28.1,27.7z"/>
	<path class="st1" d="M36.1,24.4c1.7-0.9,2.7-2.8,2.7-5.2c0-3.2-2.6-5.8-5.8-5.8c-1.6,0-3.1,0.6-4.2,1.8c-0.2,0.2-0.2,0.5,0,0.7
		c0.2,0.2,0.5,0.2,0.7,0c0.9-0.9,2.1-1.4,3.5-1.4c2.7,0,4.8,2.1,4.8,4.7c0,2.6-1.4,4.5-3.7,4.7c0,0,0,0-0.1,0c0,0-0.1,0-0.1,0
		c0,0-0.1,0-0.1,0.1c0,0,0,0-0.1,0.1c0,0,0,0.1-0.1,0.1c0,0,0,0.1,0,0.1c0,0,0,0.1,0,0.1c0,0,0,0,0,0c0,0,0,0,0,0c0,0,0,0,0,0.1
		c0,0,0,0,0,0.1c0,0,0,0.1,0,0.1c0,0,0,0.1,0.1,0.1c0,0,0,0,0,0.1c0,0,0.1,0,0.1,0.1c0,0,0,0,0.1,0c0,0,0.1,0,0.1,0c0,0,0,0,0.1,0
		c2.9,0.3,4.9,2.6,4.9,5.9v0.8c0,0.3,0.2,0.5,0.5,0.5c0.3,0,0.5-0.2,0.5-0.5v-0.8C40,27.9,38.5,25.4,36.1,24.4z"/>
	<path class="st1" d="M17,14.5c1.3,0,2.5,0.5,3.5,1.4c0.2,0.2,0.5,0.2,0.7,0c0.2-0.2,0.2-0.5,0-0.7c-1.1-1.1-2.6-1.8-4.2-1.8
		c-3.2,0-5.8,2.6-5.8,5.8c0,2.4,1,4.2,2.7,5.2c-2.4,1-3.9,3.4-3.9,6.5v0.8c0,0.3,0.2,0.5,0.5,0.5S11,32,11,31.7v-0.8
		c0-3.3,2-5.6,4.9-5.9c0,0,0,0,0.1,0c0,0,0.1,0,0.1,0c0,0,0,0,0.1,0c0,0,0.1,0,0.1-0.1c0,0,0,0,0-0.1c0,0,0-0.1,0.1-0.1
		c0,0,0-0.1,0-0.1c0,0,0,0,0-0.1c0,0,0,0,0-0.1c0,0,0,0,0,0c0,0,0,0,0,0c0,0,0-0.1,0-0.1c0,0,0-0.1,0-0.1c0,0,0-0.1-0.1-0.1
		c0,0,0,0-0.1-0.1c0,0-0.1,0-0.1-0.1c0,0-0.1,0-0.1,0c0,0,0,0-0.1,0c-2.2-0.2-3.7-2.1-3.7-4.7C12.2,16.7,14.4,14.5,17,14.5z"/>
</g>
</svg>
