<?xml version="1.0" encoding="utf-8"?>
<!-- Generator: Adobe Illustrator 21.0.0, SVG Export Plug-In . SVG Version: 6.00 Build 0)  -->
<svg version="1.1" id="Layer_1" xmlns="http://www.w3.org/2000/svg" xmlns:xlink="http://www.w3.org/1999/xlink" x="0px" y="0px"
	 width="44px" height="44px" viewBox="0 0 44 44" style="enable-background:new 0 0 44 44;" xml:space="preserve">
<style type="text/css">
	.st0{fill:none;}
	.st1{fill:#AF995A;}
</style>
<rect class="st0" width="44" height="44"/>
<g>
	<path class="st1" d="M37.1,14.1h-2v-2.8c0-0.4-0.3-0.7-0.7-0.7h-1.4V7.7c0-0.4-0.3-0.7-0.7-0.7H11.8c-0.4,0-0.7,0.3-0.7,0.7v2.9
		H9.7c-0.4,0-0.7,0.3-0.7,0.7v2.9h-2c-1.6,0-2.9,1.3-2.9,3l0,11.2c0,1.6,1.3,3,2.9,3h4.1v5c0,0.4,0.3,0.7,0.7,0.7h20.5
		c0.4,0,0.7-0.3,0.7-0.7v-5h4.1c1.6,0,2.9-1.3,2.9-3l0-11.2C40,15.5,38.7,14.1,37.1,14.1z M33.6,12v5.7h-0.7c0,0,0,0,0,0V12H33.6z
		 M31.5,8.4v9.3c0,0,0,0,0,0H12.5V8.4H31.5z M11.1,12v5.7h-0.7V12H11.1z M31.5,35.6H12.5V24.8h19.1V35.6z M38.6,28.3
		c0,0.8-0.7,1.5-1.5,1.5h-4.1v-5.7c0-0.4-0.3-0.7-0.7-0.7H11.8c-0.4,0-0.7,0.3-0.7,0.7v5.7H6.9c-0.8,0-1.5-0.7-1.5-1.5l0-11.2
		c0-0.8,0.7-1.5,1.5-1.5h2v2.2H8.2c-0.4,0-0.7,0.3-0.7,0.7c0,0.4,0.3,0.7,0.7,0.7h27.5c0.4,0,0.7-0.3,0.7-0.7c0-0.4-0.3-0.7-0.7-0.7
		H35v-2.2h2c0.8,0,1.5,0.7,1.5,1.5L38.6,28.3z"/>
	<path class="st1" d="M8.2,20.6c-0.2,0-0.4,0.1-0.5,0.2c-0.1,0.1-0.2,0.3-0.2,0.5c0,0.2,0.1,0.4,0.2,0.5C7.9,21.9,8,22,8.2,22
		c0.2,0,0.4-0.1,0.5-0.2c0.1-0.1,0.2-0.3,0.2-0.5c0-0.2-0.1-0.4-0.2-0.5C8.6,20.7,8.4,20.6,8.2,20.6z"/>
	<path class="st1" d="M34.4,20.6c-0.2,0-0.4,0.1-0.5,0.2c-0.1,0.1-0.2,0.3-0.2,0.5c0,0.2,0.1,0.4,0.2,0.5c0.1,0.1,0.3,0.2,0.5,0.2
		c0.2,0,0.4-0.1,0.5-0.2c0.1-0.1,0.2-0.3,0.2-0.5c0-0.2-0.1-0.4-0.2-0.5C34.7,20.6,34.5,20.6,34.4,20.6z"/>
	<path class="st1" d="M15.3,30.6h13.4c0.4,0,0.7-0.3,0.7-0.7s-0.3-0.7-0.7-0.7H15.3c-0.4,0-0.7,0.3-0.7,0.7S14.9,30.6,15.3,30.6z"/>
	<path class="st1" d="M28.7,32h-1.4c-0.4,0-0.7,0.3-0.7,0.7c0,0.4,0.3,0.7,0.7,0.7h1.4c0.4,0,0.7-0.3,0.7-0.7
		C29.4,32.3,29.1,32,28.7,32z"/>
	<path class="st1" d="M15.3,33.4h9.2c0.4,0,0.7-0.3,0.7-0.7c0-0.4-0.3-0.7-0.7-0.7h-9.2c-0.4,0-0.7,0.3-0.7,0.7
		C14.6,33.1,14.9,33.4,15.3,33.4z"/>
	<path class="st1" d="M15.3,27.7h5.7c0.4,0,0.7-0.3,0.7-0.7s-0.3-0.7-0.7-0.7h-5.7c-0.4,0-0.7,0.3-0.7,0.7S14.9,27.7,15.3,27.7z"/>
	<path class="st1" d="M23.8,27.7h4.9c0.4,0,0.7-0.3,0.7-0.7s-0.3-0.7-0.7-0.7h-4.9c-0.4,0-0.7,0.3-0.7,0.7S23.4,27.7,23.8,27.7z"/>
	<path class="st1" d="M32.2,20.6h-2.8c-0.4,0-0.7,0.3-0.7,0.7S29,22,29.4,22h2.8c0.4,0,0.7-0.3,0.7-0.7S32.6,20.6,32.2,20.6z"/>
</g>
</svg>
