<?xml version="1.0" encoding="utf-8"?>
<!-- Generator: Adobe Illustrator 21.0.0, SVG Export Plug-In . SVG Version: 6.00 Build 0)  -->
<svg version="1.1" id="Layer_1" xmlns="http://www.w3.org/2000/svg" xmlns:xlink="http://www.w3.org/1999/xlink" x="0px" y="0px"
	 width="44px" height="44px" viewBox="0 0 44 44" style="enable-background:new 0 0 44 44;" xml:space="preserve">
<style type="text/css">
	.st0{fill:none;}
	.st1{fill:#AF995A;}
</style>
<rect class="st0" width="44" height="44"/>
<g>
	<g>
		<g>
			<path class="st1" d="M21.2,15.6c0,0.4,0.4,0.6,0.7,0.6c0,0,0.1,0,0.1,0c2.1-0.3,4.2-0.8,6.2-1.5c0.4-0.1,0.6-0.5,0.4-0.9
				c-0.1-0.4-0.5-0.6-0.9-0.4c-1.9,0.7-3.9,1.2-6,1.5C21.4,14.9,21.1,15.2,21.2,15.6z"/>
			<path class="st1" d="M30.4,13.8c0.1,0,0.2,0,0.3-0.1c0.5-0.3,1.1-0.5,1.6-0.8c0.3-0.2,0.5-0.6,0.3-1c-0.2-0.4-0.6-0.5-1-0.3
				c-0.5,0.3-1,0.5-1.5,0.8c-0.4,0.2-0.5,0.6-0.4,1C29.9,13.6,30.1,13.8,30.4,13.8z"/>
			<path class="st1" d="M36.5,4c-1.3,0-2.4,1.1-2.5,2.4c-3.6,3.1-7.5,4.5-10.2,5.1c-3,0.7-5.1,0.6-5.1,0.6c0,0,0,0,0,0c0,0,0,0,0,0
				H8.4c-0.4,0-0.7,0.3-0.7,0.7v2.1h0c-2.6,0-4.7,2.2-4.7,4.8s2.1,4.8,4.7,4.8h0v2.1c0,0.4,0.3,0.7,0.7,0.7h1.2l1.6,8.9
				c0.4,2.1,2.2,3.7,4.4,3.7h3.4c0.2,0,0.4-0.1,0.6-0.3c0.1-0.2,0.2-0.4,0.2-0.6l-2.2-11.7h1c0,0,0,0,0,0c0,0,0,0,0,0
				c0,0,2.2-0.1,5.1,0.6c2.7,0.6,6.6,2,10.2,5.1c0,1.4,1.1,2.4,2.5,2.4c1.4,0,2.5-1.1,2.5-2.5V6.5C39,5.1,37.9,4,36.5,4z M7.7,23.1
				L7.7,23.1c-1.8,0-3.3-1.5-3.3-3.4c0-1.8,1.5-3.4,3.3-3.4h0L7.7,23.1z M17.7,35.3h-1.8c-0.4,0-0.7,0.3-0.7,0.7
				c0,0.4,0.3,0.7,0.7,0.7H18l0.3,1.7h-2.6c-1.5,0-2.7-1.1-3-2.5l-1.6-8.6h5.1l0.3,1.7h-1.9c-0.4,0-0.7,0.3-0.7,0.7s0.3,0.7,0.7,0.7
				h2.1l0.3,1.7h-1.9c-0.4,0-0.7,0.3-0.7,0.7c0,0.4,0.3,0.7,0.7,0.7h2.1L17.7,35.3z M18,25.9H9.2V13.6H18L18,25.9L18,25.9z M34,31.2
				c-3.6-2.8-7.3-4.1-9.9-4.7c-2.1-0.5-3.8-0.6-4.7-0.6V13.6c0.9,0,2.6-0.1,4.7-0.6c2.6-0.6,6.3-1.9,9.9-4.7V31.2z M37.6,33
				c0,0.6-0.5,1.1-1.1,1.1c-0.6,0-1.1-0.5-1.1-1.1V6.5c0-0.6,0.5-1.1,1.1-1.1c0.6,0,1.1,0.5,1.1,1.1V33z"/>
		</g>
	</g>
</g>
</svg>
