<?xml version="1.0" encoding="utf-8"?>
<!-- Generator: Adobe Illustrator 21.0.0, SVG Export Plug-In . SVG Version: 6.00 Build 0)  -->
<svg version="1.1" id="Layer_1" xmlns="http://www.w3.org/2000/svg" xmlns:xlink="http://www.w3.org/1999/xlink" x="0px" y="0px"
	 width="44px" height="44px" viewBox="0 0 44 44" style="enable-background:new 0 0 44 44;" xml:space="preserve">
<style type="text/css">
	.st0{fill:none;}
	.st1{fill:#AF995A;}
</style>
<rect class="st0" width="44" height="44"/>
<g>
	<path class="st1" d="M37.1,6.5H6.9C5.3,6.5,4,7.8,4,9.5v21.5c0,1.6,1.3,3,2.9,3h7.5v2.4h-2.3v1.2h19.7v-1.2h-2.3v-2.4h7.5
		c1.6,0,2.9-1.3,2.9-3V9.5C40,7.8,38.7,6.5,37.1,6.5z M28.4,36.3H15.6v-2.4h12.8V36.3z M38.8,30.9c0,1-0.8,1.8-1.7,1.8H6.9
		c-1,0-1.7-0.8-1.7-1.8v-1.6h33.7V30.9z M38.8,28.2H5.2V9.5c0-1,0.8-1.8,1.7-1.8h30.2c1,0,1.7,0.8,1.7,1.8V28.2z"/>
	<rect x="11.5" y="14.5" class="st1" width="21" height="1"/>
	<rect x="11.5" y="17.5" class="st1" width="17" height="1"/>
	<rect x="11.5" y="20.5" class="st1" width="13" height="1"/>
</g>
<path class="st1" d="M36.5,26h-29V10h29V26z M8.5,25h27V11h-27V25z"/>
</svg>
