<?xml version="1.0" encoding="utf-8"?>
<!-- Generator: Adobe Illustrator 21.0.0, SVG Export Plug-In . SVG Version: 6.00 Build 0)  -->
<svg version="1.1" id="Layer_1" xmlns="http://www.w3.org/2000/svg" xmlns:xlink="http://www.w3.org/1999/xlink" x="0px" y="0px"
	 width="44px" height="44px" viewBox="0 0 44 44" style="enable-background:new 0 0 44 44;" xml:space="preserve">
<style type="text/css">
	.st0{fill:none;}
	.st1{fill:#AF995A;}
</style>
<rect class="st0" width="44" height="44"/>
<g>
	<g>
		<g>
			<path class="st1" d="M40,19.6l-1.2-4.6c-0.1-0.2-0.2-0.4-0.4-0.5c-0.2-0.1-0.4,0-0.6,0.1L34,17.5c-0.1,0.1-0.2,0.2-0.2,0.3
				L32,22.9c-0.5-0.4-1-0.8-1.5-1.2l0.6-5.6c1.6-2.2,2.3-4.4,2-6.6c-0.5-3.4-3.2-5.3-3.3-5.4c-0.2-0.2-0.6-0.2-0.8,0
				c-0.2,0.2-0.3,0.5-0.2,0.8l0.3,0.8c0.5,1.3,0,2.9-1.2,3.6c-1.9,1.2-2.6,3.7-1.5,5.7l0.3,0.7l-0.3,4.6c-0.4,0-0.7-0.1-1.1-0.1
				c-0.8,0-1.5,0.1-2.2,0.3L23.1,20c0.2-0.1,0.3-0.3,0.5-0.5c0.2-0.3,0.3-0.8,0.2-1.2c-0.1-0.4-0.3-0.7-0.7-1
				c-0.2-0.1-0.4-0.2-0.6-0.2l-0.2-0.7c-0.1-0.3-0.1-0.6,0-0.8c0.4-0.9,0.2-2.1-0.5-2.9l-3.6-4.1c-0.2-0.2-0.4-0.3-0.6-0.2
				c-0.2,0.1-0.4,0.2-0.5,0.5l-1.5,5.3c-0.3,1,0,2.2,0.8,2.8c0.2,0.2,0.3,0.4,0.4,0.7l0.2,0.7c-0.2,0.1-0.3,0.3-0.4,0.4
				c-0.2,0.3-0.3,0.8-0.2,1.2c0.1,0.4,0.3,0.7,0.7,1c0.2,0.1,0.4,0.2,0.6,0.2l0.5,2.4c-0.5,0.5-0.9,1.1-1.2,1.7
				c-0.2,0-0.4-0.1-0.5-0.1l-3-4.6c-0.1-0.1-0.2-0.3-0.4-0.3c-0.2,0-0.4,0-0.5,0.1l-7.1,4.7C5,25.3,4.9,25.7,5.1,26l2.6,4.1
				C5.6,30.7,4,32.6,4,35c0,2.8,2.2,5,5,5h25.2c2.7,0,5-2.2,5-5c0-2-1.2-3.7-2.8-4.5L40,20C40,19.9,40,19.8,40,19.6z M37.8,16.4
				l0.2,0.7c-0.1,0-0.3,0-0.4-0.1c-0.1,0-0.2-0.1-0.4-0.2L37.8,16.4z M34.7,19.2c0.4,0.3,0.7,0.5,1.1,0.6l-1.9,5.5
				c-0.3-0.5-0.6-0.9-0.9-1.3L34.7,19.2z M28.7,10.5c1.2-0.8,2-2.2,2-3.6c0.5,0.7,1,1.7,1.1,2.8c0.3,1.8-0.3,3.6-1.6,5.5L27.9,15
				l-0.2-0.5C26.9,13.1,27.4,11.4,28.7,10.5z M28,17.3l0.1-1l1.7,0.2l-0.1,1L28,17.3z M29.5,18.8l-0.3,2.3c-0.5-0.2-0.9-0.4-1.4-0.5
				l0.1-1.9L29.5,18.8z M17.3,16c-0.4-0.3-0.5-1-0.4-1.5l0.8-2.8l0.5,2.1c0.1,0.3,0.3,0.5,0.6,0.5c0,0,0.1,0,0.1,0
				c0.4-0.1,0.6-0.4,0.5-0.8L19,11.5l1.9,2.2c0.3,0.4,0.5,1.1,0.3,1.5c-0.2,0.5-0.2,1.1-0.1,1.6l0.1,0.6l-3,0.7l-0.1-0.6
				C17.9,16.9,17.7,16.4,17.3,16z M18,19.9C18,19.9,18,19.9,18,19.9l-0.1,0c-0.1,0-0.1,0-0.1,0c0,0-0.1-0.1-0.1-0.1
				c0-0.1,0-0.1,0-0.1c0,0,0.1-0.1,0.1-0.1l0.1,0h0l4.3-1c0,0,0,0,0,0c0,0,0.1,0,0.1,0c0,0,0.1,0.1,0.1,0.1c0,0.1,0,0.1,0,0.1
				c0,0-0.1,0.1-0.1,0.1L18,19.9z M21.9,20.9c-0.6,0.2-1.2,0.5-1.7,0.9c-0.3,0.2-0.7,0.5-1,0.7L18.9,21l2.9-0.6L21.9,20.9z
				 M6.6,25.8l6-3.9l2.2,3.4c-1.3,0.2-2.5,0.6-3.5,1.4c-1,0.7-1.8,1.7-2.3,2.9L6.6,25.8z M37.8,35c0,2-1.6,3.7-3.6,3.7H9
				c-2,0-3.6-1.6-3.6-3.7c0-2,1.6-3.7,3.6-3.7c0.1,0,0.2,0,0.3,0c0.3,0,0.6-0.2,0.7-0.5c0.8-2.5,3.1-4.3,5.7-4.3
				c0.5,0,1,0.1,1.4,0.2c0.3,0.1,0.6-0.1,0.8-0.4c1.4-2.9,4.3-4.7,7.6-4.7c4.7,0,8.4,3.8,8.4,8.5c0,0.2,0,0.3,0,0.5
				c0,0.4,0.3,0.7,0.6,0.7C36.3,31.5,37.8,33.1,37.8,35z M35.2,29.7c0-0.9-0.2-1.8-0.5-2.6l2.4-6.9c0.4,0.1,0.8,0.2,1.3,0.2
				L35.2,29.7z M35.5,18.1l0.6-0.4c0.3,0.3,0.6,0.5,1,0.6c0.3,0.1,0.7,0.2,1,0.2c0,0,0.1,0,0.1,0l0.2,0.7
				C37.4,19.1,36.4,18.7,35.5,18.1z"/>
		</g>
	</g>
	<g>
		<g>
			<path class="st1" d="M24.6,30.9C24.6,30.9,24.6,30.9,24.6,30.9c-1.1-1.5-2.7-2.4-4.6-2.4c-3.1,0-5.6,2.5-5.6,5.7
				c0,0.4,0.3,0.7,0.7,0.7c0.4,0,0.7-0.3,0.7-0.7c0-2.4,1.9-4.3,4.3-4.3c1.5,0,2.9,0.8,3.7,2.1c0.1,0.2,0.4,0.3,0.6,0.3
				c0.1,0,0.2,0,0.3,0c1.7,0,3.1,1.4,3.1,3.1c0,0.4,0.3,0.7,0.7,0.7c0.4,0,0.7-0.3,0.7-0.7C29.1,32.9,27.1,30.9,24.6,30.9z"/>
		</g>
	</g>
</g>
</svg>
