<?xml version="1.0" encoding="utf-8"?>
<!-- Generator: Adobe Illustrator 21.0.0, SVG Export Plug-In . SVG Version: 6.00 Build 0)  -->
<svg version="1.1" id="Layer_1" xmlns="http://www.w3.org/2000/svg" xmlns:xlink="http://www.w3.org/1999/xlink" x="0px" y="0px"
	 width="44px" height="44px" viewBox="0 0 44 44" style="enable-background:new 0 0 44 44;" xml:space="preserve">
<style type="text/css">
	.st0{fill:none;}
	.st1{fill:#AF995A;}
</style>
<rect class="st0" width="44" height="44"/>
<g>
	<g>
		<path class="st1" d="M39.3,10.3h-5.7V9.2h2.1c0.4,0,0.7-0.3,0.7-0.7V6.2c0-0.4-0.3-0.7-0.7-0.7h-5.6c-0.4,0-0.7,0.3-0.7,0.7v2.3
			c0,0.4,0.3,0.7,0.7,0.7h2.1v1.1h-9.5V9.2h2.1c0.4,0,0.7-0.3,0.7-0.7V6.2c0-0.4-0.3-0.7-0.7-0.7h-5.6c-0.4,0-0.7,0.3-0.7,0.7v2.3
			c0,0.4,0.3,0.7,0.7,0.7h2.1v1.1h-9.5V9.2h2.1c0.4,0,0.7-0.3,0.7-0.7V6.2c0-0.4-0.3-0.7-0.7-0.7H8.3c-0.4,0-0.7,0.3-0.7,0.7v2.3
			c0,0.4,0.3,0.7,0.7,0.7h2.1v1.1H4.7C4.3,10.3,4,10.6,4,11v18.6c0,0.4,0.3,0.7,0.7,0.7h14.4v1.7H9.2c-0.4,0-0.7,0.3-0.7,0.7
			s0.3,0.7,0.7,0.7h9.9v4.3c0,0.4,0.3,0.7,0.7,0.7h4.3c0.4,0,0.7-0.3,0.7-0.7v-4.3h9.9c0.4,0,0.7-0.3,0.7-0.7s-0.3-0.7-0.7-0.7h-9.9
			v-1.7h14.4c0.4,0,0.7-0.3,0.7-0.7V11C40,10.6,39.7,10.3,39.3,10.3z M30.8,7.8V6.9H35v0.9H30.8z M19.9,7.8V6.9l0,0h4.2v0.9H19.9z
			 M9,7.8V6.9h4.2v0.9H9z M23.4,37.1h-2.9v-3.6h2.9V37.1z M23.4,32.1h-2.9v-1.7h2.9V32.1z M38.6,28.9H5.4V11.7h33.1L38.6,28.9
			L38.6,28.9z"/>
	</g>
</g>
</svg>
