<?xml version="1.0" encoding="utf-8"?>
<!-- Generator: Adobe Illustrator 21.0.0, SVG Export Plug-In . SVG Version: 6.00 Build 0)  -->
<svg version="1.1" id="Layer_1" xmlns="http://www.w3.org/2000/svg" xmlns:xlink="http://www.w3.org/1999/xlink" x="0px" y="0px"
	 width="44px" height="44px" viewBox="0 0 44 44" style="enable-background:new 0 0 44 44;" xml:space="preserve">
<style type="text/css">
	.st0{fill:none;}
	.st1{fill:#AF995A;}
</style>
<rect class="st0" width="44" height="44"/>
<g>
	<g>
		<g>
			<path class="st1" d="M39.8,12.7C39.8,12.7,39.8,12.7,39.8,12.7c0,0-0.1-0.1-0.1-0.1l-5.5-4.5C34,8,33.9,8,33.7,8H10.3
				C10.1,8,10,8,9.9,8.1l-5.5,4.5c0,0-0.1,0-0.1,0.1c0,0,0,0,0,0C4.1,12.8,4,13,4,13.2v22C4,35.7,4.3,36,4.8,36H7
				c0.4,0,0.8-0.3,0.8-0.7V20.5H13v8.6c-1.3,0.3-2.2,1.5-2.2,2.9c0,1.6,1.3,3,3,3h14.7c0,0,0,0,0,0c0,0,0,0,0,0c1.6,0,3-1.3,3-3
				V20.5h4.8v14.7c0,0.4,0.3,0.7,0.8,0.7h2.2c0.4,0,0.8-0.3,0.8-0.7v-22C40,13,39.9,12.8,39.8,12.7z M10.6,9.5h22.8l3.4,3H7.2
				L10.6,9.5z M6.2,34.5H5.5v-14h0.7V34.5z M25.9,33.4C25.9,33.4,25.9,33.4,25.9,33.4l-12.1,0c-0.8,0-1.5-0.7-1.5-1.5
				s0.7-1.5,1.5-1.5h12.1c-0.2,0.4-0.4,0.9-0.4,1.5C25.5,32.5,25.6,33,25.9,33.4z M28.5,33.5c-0.8,0-1.5-0.7-1.5-1.5
				s0.7-1.5,1.5-1.5c0.4,0,0.8-0.3,0.8-0.7S28.9,29,28.5,29h-14v-8.5h15.4V32C29.9,32.8,29.3,33.5,28.5,33.5z M38.5,34.5h-0.7v-14
				h0.7V34.5z M38.5,19h-33V14h33V19z"/>
			<path class="st1" d="M8,17.3h7c0.4,0,0.8-0.3,0.8-0.7s-0.3-0.7-0.8-0.7H8c-0.4,0-0.8,0.3-0.8,0.7C7.2,16.9,7.6,17.3,8,17.3z"/>
			<path class="st1" d="M32.6,17.3H36c0.4,0,0.8-0.3,0.8-0.7s-0.3-0.7-0.8-0.7h-3.4c-0.4,0-0.8,0.3-0.8,0.7
				C31.9,16.9,32.2,17.3,32.6,17.3z"/>
			<path class="st1" d="M26.9,17.3h2.4c0.4,0,0.8-0.3,0.8-0.7s-0.3-0.7-0.8-0.7h-2.4c-0.4,0-0.8,0.3-0.8,0.7
				C26.1,16.9,26.4,17.3,26.9,17.3z"/>
			<path class="st1" d="M18,24.4h8.3c0.4,0,0.8-0.3,0.8-0.7s-0.3-0.7-0.8-0.7H18c-0.4,0-0.8,0.3-0.8,0.7C17.2,24,17.6,24.4,18,24.4z
				"/>
			<path class="st1" d="M27.7,25.9H16.6c-0.4,0-0.8,0.3-0.8,0.7s0.3,0.7,0.8,0.7h11.1c0.4,0,0.8-0.3,0.8-0.7
				C28.4,26.2,28.1,25.9,27.7,25.9z"/>
		</g>
	</g>
</g>
</svg>
