<?xml version="1.0" encoding="utf-8"?>
<!-- Generator: Adobe Illustrator 21.0.0, SVG Export Plug-In . SVG Version: 6.00 Build 0)  -->
<svg version="1.1" id="Layer_1" xmlns="http://www.w3.org/2000/svg" xmlns:xlink="http://www.w3.org/1999/xlink" x="0px" y="0px"
	 width="44px" height="44px" viewBox="0 0 44 44" style="enable-background:new 0 0 44 44;" xml:space="preserve">
<style type="text/css">
	.st0{fill:none;}
	.st1{fill:#AF995A;}
</style>
<rect class="st0" width="44" height="44"/>
<g>
	<path class="st1" d="M37.1,9.4H6.9c-1.6,0-3,1.4-3,3v7.7c0,1.7,1.3,3,3,3h1.2c0.4,7.5,6.4,13.4,13.9,13.4s13.5-5.9,13.9-13.4h1.2
		c1.6,0,3-1.4,3-3v-7.7C40.1,10.8,38.8,9.4,37.1,9.4z M22,35.2c-6.9,0-12.6-5.7-12.6-12.8c0-2.2,0.6-4.4,1.7-6.3h7.1
		c-0.7,0.8-1.1,1.7-1.1,2.7c0,2.4,2.2,4.3,5,4.3c0.9,0,1.9,0.5,1.9,1.1c0,0.6-1,1.1-1.9,1.1s-1.9-0.5-1.9-1.1c0-0.9-0.7-1.6-1.6-1.6
		S17,23.5,17,24.3c0,1,0.4,2,1.1,2.7c0.6,0.6,1.4,1.1,2.3,1.4c0.2,0.7,0.8,1.2,1.5,1.2s1.3-0.5,1.5-1.2c0.9-0.3,1.7-0.7,2.3-1.4
		c0.7-0.8,1.1-1.7,1.1-2.7c0-2.4-2.2-4.3-5-4.3c-0.9,0-1.9-0.5-1.9-1.1c0-0.6,1-1.1,1.9-1.1c0.8,0,1.6,0.4,1.8,0.9
		c0,0.1,0,0.1,0,0.2c0,0.9,0.7,1.6,1.6,1.6s1.6-0.7,1.6-1.6c0-0.4-0.1-0.9-0.2-1.3c-0.2-0.5-0.5-1-0.9-1.4h7
		c1.1,1.9,1.7,4.1,1.7,6.3C34.6,29.5,28.9,35.2,22,35.2z M25.7,18c0.1,0.3,0.2,0.6,0.2,0.9c0,0.2-0.2,0.4-0.4,0.4
		c-0.2,0-0.4-0.2-0.4-0.4c0-0.2,0-0.4-0.1-0.6c-0.4-1-1.6-1.7-2.9-1.7c-1.7,0-3,1-3,2.3s1.4,2.3,3,2.3c2.1,0,3.8,1.4,3.8,3.1
		c0,1.4-1.2,2.7-2.9,3c-0.3,0.1-0.5,0.3-0.5,0.6v0.1c0,0.2-0.2,0.4-0.4,0.4s-0.4-0.2-0.4-0.4V28c0-0.3-0.2-0.5-0.5-0.6
		c-1.7-0.3-2.9-1.6-2.9-3c0-0.2,0.2-0.4,0.4-0.4c0.2,0,0.4,0.2,0.4,0.4c0,1.3,1.4,2.3,3,2.3s3-1,3-2.3S23.7,22,22,22
		c-2.1,0-3.8-1.4-3.8-3.1c0-1.1,0.7-2.1,1.8-2.6h4.1C24.8,16.7,25.4,17.3,25.7,18z M7.7,16.6c0-0.3,0.2-0.5,0.5-0.5h1.4
		c-0.2,0.3-0.3,0.6-0.4,1H8.2C7.9,17.1,7.7,16.9,7.7,16.6z M35.8,16.2c0.3,0,0.5,0.2,0.5,0.5s-0.2,0.5-0.5,0.5h-0.9
		c-0.1-0.3-0.3-0.7-0.4-1H35.8z M35.8,18.5c1,0,1.8-0.8,1.8-1.9s-0.8-1.9-1.8-1.9H8.2c-1,0-1.8,0.8-1.8,1.9s0.8,1.9,1.8,1.9h0.5
		c-0.3,1.1-0.5,2.2-0.5,3.3H6.9c-0.9,0-1.6-0.7-1.6-1.7v-7.7c0-0.9,0.7-1.7,1.6-1.7h30.2c0.9,0,1.6,0.7,1.6,1.7v7.7
		c0,0.9-0.7,1.7-1.6,1.7h-1.2c-0.1-1.1-0.2-2.2-0.5-3.3H35.8z"/>
	<path class="st1" d="M26,31.7c-0.2-0.1-0.3-0.1-0.5,0c-1.1,0.4-2.3,0.7-3.5,0.7c-5.2,0-9.5-4.3-9.5-9.6c0-1.4,0.3-2.8,0.9-4.1
		c0.1-0.3,0-0.7-0.3-0.9c-0.2-0.1-0.3-0.1-0.5,0c-0.2,0.1-0.3,0.2-0.4,0.3c-0.7,1.4-1,3-1,4.6c0,6,4.8,10.9,10.8,10.9
		c1.4,0,2.7-0.3,4-0.8c0.3-0.1,0.5-0.5,0.4-0.8C26.3,31.9,26.1,31.8,26,31.7z"/>
	<path class="st1" d="M31.4,17.8c-0.2-0.1-0.3,0-0.5,0c-0.3,0.1-0.5,0.5-0.3,0.9c0.6,1.3,0.9,2.6,0.9,4.1c0,3.1-1.5,6.1-4,7.9
		c-0.3,0.2-0.4,0.6-0.1,0.9c0.1,0.2,0.3,0.3,0.5,0.3c0.1,0,0.3,0,0.4-0.1c2.8-2,4.5-5.4,4.5-8.9c0-1.6-0.3-3.2-1-4.6
		C31.7,18,31.6,17.8,31.4,17.8z"/>
</g>
</svg>
