<?xml version="1.0" encoding="utf-8"?>
<!-- Generator: Adobe Illustrator 21.0.0, SVG Export Plug-In . SVG Version: 6.00 Build 0)  -->
<svg version="1.1" id="Layer_1" xmlns="http://www.w3.org/2000/svg" xmlns:xlink="http://www.w3.org/1999/xlink" x="0px" y="0px"
	 width="44px" height="44px" viewBox="0 0 44 44" style="enable-background:new 0 0 44 44;" xml:space="preserve">
<style type="text/css">
	.st0{fill:none;}
	.st1{fill:#AF995A;}
</style>
<rect class="st0" width="44" height="44"/>
<g>
	<path class="st1" d="M14.9,24.4h14.2c0.4,0,0.7-0.3,0.7-0.8s-0.3-0.8-0.7-0.8H14.9c-0.4,0-0.7,0.3-0.7,0.8S14.5,24.4,14.9,24.4z"/>
	<path class="st1" d="M29.1,25.9h-1.5c-0.4,0-0.7,0.3-0.7,0.8s0.3,0.8,0.7,0.8h1.5c0.4,0,0.7-0.3,0.7-0.8S29.5,25.9,29.1,25.9z"/>
	<path class="st1" d="M14.9,27.4h9.7c0.4,0,0.7-0.3,0.7-0.8s-0.3-0.8-0.7-0.8h-9.7c-0.4,0-0.7,0.3-0.7,0.8S14.5,27.4,14.9,27.4z"/>
	<path class="st1" d="M14.9,21.3h6c0.4,0,0.7-0.3,0.7-0.8c0-0.4-0.3-0.8-0.7-0.8h-6c-0.4,0-0.7,0.3-0.7,0.8
		C14.1,21,14.5,21.3,14.9,21.3z"/>
	<path class="st1" d="M23.9,21.3h5.2c0.4,0,0.7-0.3,0.7-0.8c0-0.4-0.3-0.8-0.7-0.8h-5.2c-0.4,0-0.7,0.3-0.7,0.8
		C23.1,21,23.5,21.3,23.9,21.3z"/>
	<path class="st1" d="M14.9,30.2h6c0.4,0,0.7-0.3,0.7-0.8s-0.3-0.8-0.7-0.8h-6c-0.4,0-0.7,0.3-0.7,0.8S14.5,30.2,14.9,30.2z"/>
	<path class="st1" d="M39.3,20.9h-0.4c-0.3-1.4-1.5-2.4-3-2.4h-2.3v-2.1h0.9h1.4c1.5,0,2.7-1,3-2.4h0.4c0.4,0,0.7-0.3,0.7-0.8
		c0-0.4-0.3-0.8-0.7-0.8h-0.4c-0.3-1.4-1.5-2.4-3-2.4h-2.8l0,0H10.7H9.5H8.2c-1.5,0-2.7,1-3,2.4H4.7c-0.4,0-0.7,0.3-0.7,0.8
		c0,0.4,0.3,0.8,0.7,0.8h0.4c0.3,1.4,1.5,2.4,3,2.4h1.4h0.9v2.1H8.2c-1.5,0-2.7,1-3,2.4H4.7c-0.4,0-0.7,0.3-0.7,0.8s0.3,0.8,0.7,0.8
		h0.4c0.3,1.4,1.5,2.4,3,2.4h2.3v10.4c0,0.4,0.3,0.8,0.7,0.8h21.7c0.4,0,0.7-0.3,0.7-0.8V24.9h2.3c1.5,0,2.7-1,3-2.4h0.4
		c0.4,0,0.7-0.3,0.7-0.8S39.7,20.9,39.3,20.9z M8.2,14.9c-0.9,0-1.6-0.7-1.6-1.6v-0.1c0-0.9,0.7-1.6,1.6-1.6h1.4h1.2h23.8l0,0h1.4
		c0.9,0,1.6,0.7,1.6,1.6v0.1c0,0.9-0.7,1.6-1.6,1.6h-1.4h-1.5h-0.1H11.2h-0.3H9.5H8.2z M8.2,23.4c-0.9,0-1.6-0.7-1.6-1.6v-0.1
		c0-0.9,0.7-1.6,1.6-1.6h2.3v3.4H8.2z M32.1,34.5H11.9V16.4h20.2V34.5z M37.4,21.7c0,0.9-0.7,1.6-1.6,1.6h-2.3V20h2.3
		c0.9,0,1.6,0.7,1.6,1.6V21.7z"/>
</g>
</svg>
