<?xml version="1.0" encoding="utf-8"?>
<!-- Generator: Adobe Illustrator 21.0.0, SVG Export Plug-In . SVG Version: 6.00 Build 0)  -->
<svg version="1.1" id="Capa_1" xmlns="http://www.w3.org/2000/svg" xmlns:xlink="http://www.w3.org/1999/xlink" x="0px" y="0px"
	 width="30px" height="30px" viewBox="0 0 30 30" style="enable-background:new 0 0 30 30;" xml:space="preserve">
<style type="text/css">
	.st0{fill:#CCCCCC;}
	.st1{fill:none;}
</style>
<path class="st0" d="M16.2,4.4l2.7,5.4c0.2,0.4,0.6,0.6,1,0.7l6.1,0.9c1.1,0.2,1.5,1.4,0.7,2.2l-4.4,4.2c-0.3,0.3-0.4,0.7-0.4,1.1
	l1,6c0.2,1-0.9,1.8-1.9,1.3l-5.4-2.8c-0.4-0.2-0.8-0.2-1.2,0L9,26.2c-0.9,0.5-2.1-0.3-1.9-1.3l1-6c0.1-0.4-0.1-0.8-0.4-1.1l-4.4-4.2
	c-0.8-0.7-0.3-2,0.7-2.2l6.1-0.9c0.4-0.1,0.8-0.3,1-0.7l2.7-5.4C14.3,3.4,15.7,3.4,16.2,4.4z"/>
<rect class="st1" width="30" height="30"/>
</svg>
