<?xml version="1.0"?>
<!--Icons from directory ""-->
<svg xmlns="http://www.w3.org/2000/svg" width="32" height="64" viewBox="0 0 32 64"><svg xmlns:xlink="http://www.w3.org/1999/xlink" id="s1" style="enable-background:new 0 0 72 72" xml:space="preserve" viewBox="0 0 72 72" version="1.1" y="0" x="0px" width="32" height="32"><style type="text/css">	.st0{fill:#B2B2B2;}	.st1{fill:none;stroke:#559F22;stroke-width:2;stroke-linecap:round;stroke-linejoin:round;stroke-miterlimit:10;}	.st2{fill:none;stroke:#559F22;stroke-width:2;stroke-miterlimit:10;}	.st3{fill:none;stroke:#7F7F7F;stroke-width:2;stroke-linecap:round;stroke-linejoin:round;stroke-miterlimit:10;}</style>		<path class="st0" d="m36 2c18.7 0 34 15.3 34 34s-15.3 34-34 34-34-15.3-34-34 15.3-34 34-34m0-2c-19.9 0-36 16.1-36 36s16.1 36 36 36 36-16.1 36-36-16.1-36-36-36z"/>		<path class="st1" d="m37 53h-14.8c-1.8 0-3.2-1.4-3.2-3.2v-23.2h6.4c1.8 0 3.2-1.4 3.2-3.2v-6.4h15.2c1.8 0 3.2 1.4 3.2 3.2v8.8"/>		<line y1="26.6" x2="28.6" x1="19" y2="17" class="st2"/>		<line y1="31.2" x2="39.9" x1="23.8" y2="31.2" class="st3"/>		<line y1="36" x2="35.1" x1="23.8" y2="36" class="st3"/>		<line y1="40.8" x2="31.8" x1="23.8" y2="40.8" class="st3"/>		<line y1="45.6" x2="30.2" x1="23.8" y2="45.6" class="st3"/>	<circle cy="43" cx="47" r="10" class="st1"/>		<line y1="47" x2="47" x1="47" y2="39" class="st1"/>			<line y1="42.5" x2="47" x1="43.5" y2="39" class="st1"/>			<line y1="42.5" x2="47" x1="50.5" y2="39" class="st1"/></svg><svg xmlns:xlink="http://www.w3.org/1999/xlink" id="s2" style="enable-background:new 0 0 72 72" xml:space="preserve" viewBox="0 0 72 72" version="1.1" y="32" x="0px" width="32" height="32"><style type="text/css">	.st0{fill:#B2B2B2;}	.st1{fill:none;stroke:#559F22;stroke-width:2;stroke-linecap:round;stroke-linejoin:round;stroke-miterlimit:10;}	.st2{fill:none;stroke:#559F22;stroke-width:2;stroke-miterlimit:10;}	.st3{fill:none;stroke:#7F7F7F;stroke-width:2;stroke-linecap:round;stroke-linejoin:round;stroke-miterlimit:10;}</style>		<path class="st0" d="m36 2c18.7 0 34 15.3 34 34s-15.3 34-34 34-34-15.3-34-34 15.3-34 34-34m0-2c-19.9 0-36 16.1-36 36s16.1 36 36 36 36-16.1 36-36-16.1-36-36-36z"/>		<path class="st1" d="m47.4 37.8v12c0 1.8-1.4 3.2-3.2 3.2h-21c-1.8 0-3.2-1.4-3.2-3.2v-23.2h6.4c1.8 0 3.2-1.4 3.2-3.2v-6.4h14.5c1.8 0 3.2 1.4 3.2 3.2v8.5"/>		<line y1="26.6" x2="29.6" x1="20" y2="17" class="st2"/>		<line y1="31.2" x2="40.9" x1="24.8" y2="31.2" class="st3"/>		<line y1="36" x2="36.1" x1="24.8" y2="36" class="st3"/>		<line y1="40.8" x2="32.8" x1="24.8" y2="40.8" class="st3"/>		<line y1="45.6" x2="31.2" x1="24.8" y2="45.6" class="st3"/>		<path class="st1" d="m57.5 27.6l-14.9 15c-0.6 0.6-7.1 2.7-7.1 2.7s1.9-6.6 2.5-7.2l15-15c0.6-0.6 1.6-0.6 2.3 0l2.3 2.3c0.6 0.6 0.6 1.6-0.1 2.2z"/>		<line y1="39.9" x2="56.3" x1="40.7" y2="24.3" class="st1"/>		<line y1="43.1" x2="37.6" x1="36.2" y2="44.6" class="st1"/></svg></svg>
