<svg id="Layer_1" data-name="Layer 1" xmlns="http://www.w3.org/2000/svg" viewBox="0 0 73.84 61.42"><defs><style>.cls-1{fill:#0f4a34;}.cls-1,.cls-2,.cls-3,.cls-4{fill-rule:evenodd;}.cls-2{fill:#a46427;}.cls-3{fill:#0f9b51;}.cls-4{fill:#008d47;}.cls-5{fill:#fff;}</style></defs><title>logo</title><path class="cls-1" d="M1954.53,285.08c-3.67-.26-8.81.86-9.55,5-0.15.84-.06,3.61,0.36,4.24,0.21,0.32,1.64.38,2,.41a10.21,10.21,0,0,0,2.26,0C1954.26,294.13,1954.45,289.31,1954.53,285.08Z" transform="translate(-1897.95 -265.94)"/><path class="cls-2" d="M1915.24,285.07c-0.11,2.74.25,6.15,1.67,8,1.61,2.07,4.57,1.9,7,1.5a0.54,0.54,0,0,0,.49-0.2,10.47,10.47,0,0,0,.37-4.19C1924.08,285.77,1919.29,285.2,1915.24,285.07Z" transform="translate(-1897.95 -265.94)"/><path class="cls-1" d="M1952.44,312.19a12.72,12.72,0,0,0-2.48-6.91,5.61,5.61,0,0,0-6.67-2c-0.52.22-.36,1-0.35,2C1943,310.23,1947.82,312.17,1952.44,312.19Z" transform="translate(-1897.95 -265.94)"/><path class="cls-1" d="M1917.3,312.18a12.26,12.26,0,0,0,7.27-2.16,5.36,5.36,0,0,0,1.93-2.79,9.89,9.89,0,0,0,.3-3.31,0.6,0.6,0,0,0-.43-0.7,5.88,5.88,0,0,0-4,0C1919.31,304.47,1917.21,309.29,1917.3,312.18Z" transform="translate(-1897.95 -265.94)"/><path class="cls-3" d="M1927.23,269.7c-1.1.32-3.07,2.66-3.76,4-1,2-1,4.56.41,6,0.71,0.72,3.6.4,4.06-3.07C1928.33,273.86,1927.34,271.51,1927.23,269.7Z" transform="translate(-1897.95 -265.94)"/><path class="cls-4" d="M1941.93,273c-0.27,1.91-.49,5,1.08,6.32,0.57,0.48,2.1,1.19,2.84.44,1.49-1.49,1.43-3.86.49-5.94a10.74,10.74,0,0,0-3.73-4.12Z" transform="translate(-1897.95 -265.94)"/><path class="cls-3" d="M1910.45,311c1.42-.13,3.12-2.57,3.7-3.84,0.93-2,1.15-4.22-.35-5.85C1912.65,300.05,1907.75,302.92,1910.45,311Z" transform="translate(-1897.95 -265.94)"/><path class="cls-3" d="M1959.3,311a13.76,13.76,0,0,0,.74-3.09c0.52-5.78-3-7.74-4.09-6.61C1952.84,304.62,1957.19,310.76,1959.3,311Z" transform="translate(-1897.95 -265.94)"/><path class="cls-3" d="M1906.05,287a5.5,5.5,0,0,0,7.75-4.39A5.67,5.67,0,0,0,1906.05,287Z" transform="translate(-1897.95 -265.94)"/><path class="cls-3" d="M1956,282.59a6.48,6.48,0,0,0,2.34,4c1.57,1.07,3.4.87,5.38,0.48a5.15,5.15,0,0,0-2.45-3.88C1959.1,281.91,1957.85,282.33,1956,282.59Z" transform="translate(-1897.95 -265.94)"/><path class="cls-3" d="M1913.94,274.38a7.4,7.4,0,0,0,.83,4.25,3,3,0,0,0,2.86,1,1,1,0,0,0,.76-0.54C1920.21,276.72,1917.62,274.1,1913.94,274.38Z" transform="translate(-1897.95 -265.94)"/><path class="cls-3" d="M1955.81,274.37a6.7,6.7,0,0,0-4,1.1c-1.83,1.55-.67,4,0.34,4.19C1955.42,280.13,1955.84,277,1955.81,274.37Z" transform="translate(-1897.95 -265.94)"/><path class="cls-3" d="M1937.67,266a8,8,0,0,0-.23,4.12c0.49,1.73,2,2.21,2.61,1.62C1942,269.78,1939.51,266.63,1937.67,266Z" transform="translate(-1897.95 -265.94)"/><path class="cls-3" d="M1932.06,265.94c-2.35,1.11-4.17,4-2.33,5.77,0.61,0.59,2.16,0,2.59-1.69C1932.54,269.16,1932.53,266.57,1932.06,265.94Z" transform="translate(-1897.95 -265.94)"/><path class="cls-3" d="M1929.81,287.8c2.94,0.54,3.41-2.76,3.3-5.25C1931,282.92,1928,285.25,1929.81,287.8Z" transform="translate(-1897.95 -265.94)"/><path class="cls-3" d="M1936.65,282.55c-0.09,1.69.06,4.25,1.66,5.08a2.13,2.13,0,0,0,.92.23c0.53,0,.69,0,0.89-0.34C1941.45,284.89,1938.55,282.82,1936.65,282.55Z" transform="translate(-1897.95 -265.94)"/><path class="cls-3" d="M1930.17,280.73a3.34,3.34,0,0,0,3-1.29c0.64-1,.54-2.43.61-3.75C1931,275.83,1929.16,277.82,1930.17,280.73Z" transform="translate(-1897.95 -265.94)"/><path class="cls-3" d="M1936,275.68c0.19,2.4-.25,5,3.59,5.05a4,4,0,0,0-.39-3.59A4.52,4.52,0,0,0,1936,275.68Z" transform="translate(-1897.95 -265.94)"/><path class="cls-3" d="M1965.43,296.08c-1.32-.41-4.08-1.84-5.5-0.71a1.6,1.6,0,0,0-.68,1.6c0.49,1.22,2.2,1.29,3.28,1C1963.45,297.66,1965.11,296.81,1965.43,296.08Z" transform="translate(-1897.95 -265.94)"/><path class="cls-3" d="M1904.31,296.08a5.65,5.65,0,0,0,2.9,1.85c2.74,0.77,4.34-1.24,2.6-2.57C1908.38,294.26,1905.69,295.65,1904.31,296.08Z" transform="translate(-1897.95 -265.94)"/><path class="cls-3" d="M1956.86,288a6,6,0,0,0-1.48,2.46c-0.58,1.9,1,3.52,2.25,2C1958.63,291.15,1957.47,288.57,1956.86,288Z" transform="translate(-1897.95 -265.94)"/><path class="cls-3" d="M1912.87,288c-0.6.67-1.73,3.16-.75,4.41a1.61,1.61,0,0,0,1.22.66c0.9-.19,1.38-1.38,1-2.61a6.39,6.39,0,0,0-1.23-2.21Z" transform="translate(-1897.95 -265.94)"/><path class="cls-3" d="M1904.24,302.57c0.66,0.36,4.1,1,4.12-1.7C1906.42,298.95,1904.43,301.55,1904.24,302.57Z" transform="translate(-1897.95 -265.94)"/><path class="cls-3" d="M1961.37,300.86a2.09,2.09,0,0,0,1.32,1.94,5.57,5.57,0,0,0,2.81-.22,4,4,0,0,0-1.54-2.05C1962.86,299.82,1962.18,300.26,1961.37,300.86Z" transform="translate(-1897.95 -265.94)"/><path class="cls-1" d="M1934.94,286.48a6.84,6.84,0,0,0-2.27,2.52,8.27,8.27,0,0,0-1.08,3.69,7,7,0,0,0,1.92,5.25c1.23,1.2,1.51,1.31,2.77,0a6.62,6.62,0,0,0,1.94-5.25,8.28,8.28,0,0,0-1.08-3.69A7.74,7.74,0,0,0,1934.94,286.48Z" transform="translate(-1897.95 -265.94)"/><path class="cls-3" d="M1904.84,291.49c0.64,1.55,3.47,2.32,4.05.77a1.47,1.47,0,0,0-.38-1.07C1907.57,290.1,1905.27,291.15,1904.84,291.49Z" transform="translate(-1897.95 -265.94)"/><path class="cls-3" d="M1964.92,291.49a5.31,5.31,0,0,0-2.44-.8,1.48,1.48,0,0,0-1.21.46c-1.22,1.38.48,2.32,1.85,1.83A3.29,3.29,0,0,0,1964.92,291.49Z" transform="translate(-1897.95 -265.94)"/><path class="cls-3" d="M1950.12,273.88c2,0,2.05-1.32,1.94-3.16a3,3,0,0,0-1.89.87A2.4,2.4,0,0,0,1950.12,273.88Z" transform="translate(-1897.95 -265.94)"/><path class="cls-3" d="M1917.69,270.7c-0.06,1.84-.12,3.23,2,3.18C1920.08,271.81,1919.75,271.06,1917.69,270.7Z" transform="translate(-1897.95 -265.94)"/><path class="cls-3" d="M1956.46,279.62c1.88,0,1.87-.6,1.81-2.3C1956.6,277.35,1956.13,277.93,1956.46,279.62Z" transform="translate(-1897.95 -265.94)"/><path class="cls-3" d="M1913.29,279.63c0.3-1.62-.1-2.32-1.81-2.3C1911.44,279.1,1911.36,279.57,1913.29,279.63Z" transform="translate(-1897.95 -265.94)"/><path class="cls-3" d="M1948.83,297.24a15.39,15.39,0,0,1,10.82,3.84,8.6,8.6,0,0,0,.83.65c-0.83-1.67-4.26-4.27-6.11-4.7,1.29-.64,4.5-1.94,5.59-5-2.53,2.51-4.49,4.24-8.83,4.37-7.13.21-9,1.32-10.19,2.11,0.11-3.27,4.2-13.07,9.32-15.91a14.69,14.69,0,0,1,6.3-2c-4.35-.37-7.41.81-9.12,2.42,0.74-.73,2.42-5.21,1.82-7.3,0.06,1.72-1.62,5-2.49,6.62a16.62,16.62,0,0,1-3.89,5,13.65,13.65,0,0,0,0-4.66,18.53,18.53,0,0,0-2.36-6.11,17.61,17.61,0,0,0-1.73-2.7c0.17,0.48,1.28,2.88,1.53,3.51a25,25,0,0,1,1,13.46,43.73,43.73,0,0,1-4.05,11.34c-0.72,1.4-1.45,3-2.39,3s-1.68-1.55-2.39-3a43.73,43.73,0,0,1-4.05-11.34,25,25,0,0,1,1-13.46c0.24-.63,1.35-3,1.53-3.51a17.61,17.61,0,0,0-1.73,2.7,18.53,18.53,0,0,0-2.36,6.11,13.65,13.65,0,0,0,0,4.66,16.62,16.62,0,0,1-3.89-5c-0.87-1.58-2.55-4.91-2.49-6.62-0.6,2.09,1.08,6.56,1.82,7.3-1.71-1.61-4.77-2.8-9.12-2.42a14.69,14.69,0,0,1,6.3,2c5.12,2.83,9.21,12.63,9.32,15.91-1.2-.79-3.06-1.9-10.19-2.11-4.34-.13-6.3-1.86-8.83-4.37,1.09,3,4.3,4.32,5.59,5-1.85.43-5.28,3-6.11,4.7a8.6,8.6,0,0,0,.83-0.65,15.39,15.39,0,0,1,10.82-3.84c0.57,0,4.15.28,5.41,1.79-3.55-.3-8.67,1.85-9.25,6.07,0.29-1,3.28-4.5,6.48-4.66a9.34,9.34,0,0,1,5.78,2.06c2.6,2.64,3.81,5,3.14,9.24a11.23,11.23,0,0,1-.57,2.2,3.17,3.17,0,0,0,3,4.27h0a3.17,3.17,0,0,0,3-4.27,11.23,11.23,0,0,1-.57-2.2c-0.68-4.21.54-6.6,3.14-9.24a9.34,9.34,0,0,1,5.78-2.06c3.19,0.16,6.18,3.66,6.48,4.66-0.58-4.22-5.7-6.37-9.25-6.07C1944.68,297.52,1948.26,297.26,1948.83,297.24Z" transform="translate(-1897.95 -265.94)"/><path class="cls-5" d="M1898,322a8.32,8.32,0,0,1,.58-3,11.05,11.05,0,0,1,1.47-2.72,8.28,8.28,0,0,1,2.06-2,4.15,4.15,0,0,1,2.29-.77,1.68,1.68,0,0,1,1.35.51,1.92,1.92,0,0,1,.44,1.29,3.06,3.06,0,0,1-.42,1.56,1.19,1.19,0,0,1-1,.73,0.75,0.75,0,0,1-.64-0.5,3.21,3.21,0,0,0,.79-1,2.5,2.5,0,0,0,.42-1.23,0.68,0.68,0,0,0-.82-0.71,3.31,3.31,0,0,0-2.31,1.3,10.69,10.69,0,0,0-2,3.17,9,9,0,0,0-.78,3.44,3.5,3.5,0,0,0,.58,2.13,1.74,1.74,0,0,0,1.45.79,2.42,2.42,0,0,0,2-1.37,6.56,6.56,0,0,0,1-3,8.12,8.12,0,0,0-1.62-.15l-1,0a1.18,1.18,0,0,1,1.21-1,5.28,5.28,0,0,1,1.51.33q1,0.33,1.27.39-0.66,2.06-.83,2.76a5.7,5.7,0,0,0-.17,1.39q0,0.23,0,.7t0,0.73a1.11,1.11,0,0,1-1-1.28,2.29,2.29,0,0,1,0-.3,3.55,3.55,0,0,1-2.77,1.49,2.86,2.86,0,0,1-2.24-1A4.08,4.08,0,0,1,1898,322Z" transform="translate(-1897.95 -265.94)"/><path class="cls-5" d="M1906.17,323.58a3.75,3.75,0,0,1,.58-2,1.58,1.58,0,0,1,1.24-1,1.25,1.25,0,0,1,.47.13,2.16,2.16,0,0,1,.49-1.17,1.39,1.39,0,0,1,1.12-.46,1.2,1.2,0,0,1,.95.35,1.31,1.31,0,0,1,.3.9,4.9,4.9,0,0,1-1.07,2.59,1,1,0,0,0,.43.09,1.9,1.9,0,0,0,1.65-1.14l0.27,0.2a2.56,2.56,0,0,1-.86,1.1,1.93,1.93,0,0,1-1.12.38,2.53,2.53,0,0,1-.77-0.13,3.41,3.41,0,0,1-2.51,1.51,1,1,0,0,1-.91-0.41A1.79,1.79,0,0,1,1906.17,323.58Zm1.21,0q0,0.7.52,0.7a2.4,2.4,0,0,0,1.43-1.06,3,3,0,0,1-.88-2.24,2.3,2.3,0,0,0-.68,1.05A4.07,4.07,0,0,0,1907.38,323.54Zm1.9-2.35a3.07,3.07,0,0,0,.12.8,1.87,1.87,0,0,0,.32.69,4.09,4.09,0,0,0,.89-2.27q0-.67-0.43-0.67a0.79,0.79,0,0,0-.61.43A1.77,1.77,0,0,0,1909.28,321.19Z" transform="translate(-1897.95 -265.94)"/><path class="cls-5" d="M1912,323.38a10.94,10.94,0,0,1,1-3.79,24.53,24.53,0,0,1,2.13-4.2q1.17-1.8,1.73-1.8a0.54,0.54,0,0,1,.44.4,2.16,2.16,0,0,1,.2.81,5.79,5.79,0,0,1-.52,2,14.83,14.83,0,0,1-1.51,2.73,10.27,10.27,0,0,1-2.06,2.3,8.18,8.18,0,0,0-.17,1.38v0q0,1,.65,1a1.6,1.6,0,0,0,1.13-.71,7.65,7.65,0,0,0,1.07-1.71l0.36,0.2a7.35,7.35,0,0,1-1.47,2.14,2.41,2.41,0,0,1-1.66.76Q1912,325,1912,323.38Zm1.65-2.51a14.29,14.29,0,0,0,2.16-3.2,7.18,7.18,0,0,0,1-2.7,2,2,0,0,0-.77.88,20.63,20.63,0,0,0-1.25,2.3A20.91,20.91,0,0,0,1913.68,320.87Z" transform="translate(-1897.95 -265.94)"/><path class="cls-5" d="M1915.47,323.58a4,4,0,0,1,.62-1.93,6.62,6.62,0,0,1,1.65-1.9,3.29,3.29,0,0,1,2-.82q0.74,0,.74.5a0.38,0.38,0,0,1-.18.35,0.64,0.64,0,0,0-.53-0.17,2.2,2.2,0,0,0-1.52.71,5.13,5.13,0,0,0-1.14,1.58,3.68,3.68,0,0,0-.4,1.47,0.51,0.51,0,0,0,.49.63,2.52,2.52,0,0,0,1.6-1.1,10,10,0,0,0,1.65-2.89l0.59-1.51,0.59-1.43q0.36-.88.62-1.38t0.57-1.05a3.64,3.64,0,0,1,.57-0.79,0.73,0.73,0,0,1,.49-0.25,0.41,0.41,0,0,1,.3.13,0.44,0.44,0,0,1,.13.33,4.9,4.9,0,0,1-.55,1.45l-1.17,2.42a24.2,24.2,0,0,0-1.18,2.85,8.41,8.41,0,0,0-.55,2.68,1.18,1.18,0,0,0,.07.49,0.24,0.24,0,0,0,.24.13,1.9,1.9,0,0,0,1.18-.6,5.29,5.29,0,0,0,1.17-1.63l0.29,0.24a5.41,5.41,0,0,1-1.38,2,2.64,2.64,0,0,1-1.75.79,1.1,1.1,0,0,1-1.11-1.35,5.57,5.57,0,0,1,.12-1,8.34,8.34,0,0,1-1.54,1.74,2.38,2.38,0,0,1-1.45.65,1.28,1.28,0,0,1-.89-0.36A1.34,1.34,0,0,1,1915.47,323.58Z" transform="translate(-1897.95 -265.94)"/><path class="cls-5" d="M1922.91,323.35a4.38,4.38,0,0,1,1.28-2.84,3.6,3.6,0,0,1,2.65-1.46,0.94,0.94,0,0,1,1.12,1,2.4,2.4,0,0,1-1.19,1.94,5.48,5.48,0,0,1-2.66,1,1.76,1.76,0,0,0,0,.35,1.74,1.74,0,0,0,0,.29,1.78,1.78,0,0,0,.12.37,0.77,0.77,0,0,0,.37.38,1.38,1.38,0,0,0,.66.14,3.09,3.09,0,0,0,1.89-.75,5.73,5.73,0,0,0,1.56-1.87l0.3,0.24a5.39,5.39,0,0,1-1.74,2.19,3.92,3.92,0,0,1-2.35.83,2,2,0,0,1-1.48-.51A1.74,1.74,0,0,1,1922.91,323.35Zm1.37-.91a3.84,3.84,0,0,0,1.87-.88,2.11,2.11,0,0,0,1-1.58,0.24,0.24,0,0,0-.26-0.29,2.15,2.15,0,0,0-1.47.88A5.37,5.37,0,0,0,1924.28,322.44Z" transform="translate(-1897.95 -265.94)"/><path class="cls-5" d="M1927.77,324.31s0.09-.24.27-0.68a15.35,15.35,0,0,0,.52-1.5,5.16,5.16,0,0,0,.24-1.4,1,1,0,0,1,.77-0.35,0.43,0.43,0,0,1,.52.44,6,6,0,0,1-.25,1.34q1.55-2,2.88-2a1.17,1.17,0,0,1,1,.41,1.48,1.48,0,0,1,.34,1,3.38,3.38,0,0,1-.3,1.24,3.29,3.29,0,0,0-.3,1,0.36,0.36,0,0,0,.37.44,1.56,1.56,0,0,0,1.09-.69,8.16,8.16,0,0,0,1.06-1.63l0.26,0.21q-1.2,2.72-2.73,2.72a1.29,1.29,0,0,1-.9-0.29,1,1,0,0,1-.32-0.76,3.82,3.82,0,0,1,.21-1,3.83,3.83,0,0,0,.21-1,0.5,0.5,0,0,0-.53-0.59,1.57,1.57,0,0,0-.9.34,4.8,4.8,0,0,0-1,1q-0.51.67-.78,1.08l-0.71,1.14A1.16,1.16,0,0,1,1927.77,324.31Z" transform="translate(-1897.95 -265.94)"/><path class="cls-5" d="M1941.57,313.59a1.75,1.75,0,0,1,1.32.47,1.65,1.65,0,0,1,.46,1.2,9.54,9.54,0,0,1-.42,2,12.13,12.13,0,0,0-.55,2.76q0,1.43,1.09,1.43h0a2.41,2.41,0,0,0,1.85-1,8.35,8.35,0,0,0,1.4-2.59l0.26-1,0.31-1.18q0.15-.49.35-1a3.08,3.08,0,0,1,.42-0.8,0.6,0.6,0,0,1,.45-0.28,1.59,1.59,0,0,1,1,.58,8.56,8.56,0,0,0-1.12,2.41l-1.38,5q-0.23.93-.44,1.62a11.88,11.88,0,0,1-.6,1.52,6,6,0,0,1-.85,1.37,3.81,3.81,0,0,1-1.19.9,3.51,3.51,0,0,1-1.6.37,2.85,2.85,0,0,1-1.58-.39,1.25,1.25,0,0,1-.61-1.11,1.32,1.32,0,0,1,.3-0.86,1.47,1.47,0,0,1,.85-0.49,5.63,5.63,0,0,0-.17,1,1.18,1.18,0,0,0,1.38,1.29,2.25,2.25,0,0,0,1.47-.5A3.21,3.21,0,0,0,1945,325a13.39,13.39,0,0,0,.53-1.66q0.2-.8.36-1.78a11,11,0,0,1,.28-1.36,3.79,3.79,0,0,1-3.17,2.14,1.77,1.77,0,0,1-1.41-.53,2.07,2.07,0,0,1-.46-1.4,11.74,11.74,0,0,1,.49-2.58,11.92,11.92,0,0,0,.49-2.47q0-1.09-.82-1.09C1940.74,314.23,1940.73,313.59,1941.57,313.59Z" transform="translate(-1897.95 -265.94)"/><path class="cls-5" d="M1948.17,323.35a4.38,4.38,0,0,1,1.28-2.84,3.6,3.6,0,0,1,2.65-1.46,0.94,0.94,0,0,1,1.12,1A2.4,2.4,0,0,1,1952,322a5.48,5.48,0,0,1-2.66,1,1.76,1.76,0,0,0,0,.35,1.74,1.74,0,0,0,0,.29,1.78,1.78,0,0,0,.12.37,0.77,0.77,0,0,0,.37.38,1.38,1.38,0,0,0,.66.14,3.09,3.09,0,0,0,1.89-.75,5.73,5.73,0,0,0,1.56-1.87l0.3,0.24a5.39,5.39,0,0,1-1.74,2.19,3.92,3.92,0,0,1-2.35.83,2,2,0,0,1-1.48-.51A1.74,1.74,0,0,1,1948.17,323.35Zm1.37-.91a3.84,3.84,0,0,0,1.87-.88,2.11,2.11,0,0,0,1-1.58,0.24,0.24,0,0,0-.26-0.29,2.15,2.15,0,0,0-1.47.88A5.37,5.37,0,0,0,1949.54,322.44Z" transform="translate(-1897.95 -265.94)"/><path class="cls-5" d="M1953.21,323.88a4,4,0,0,1,.62-2,6.17,6.17,0,0,1,1.64-1.85,3.35,3.35,0,0,1,2-.77,1.68,1.68,0,0,1,1.08.35,1.08,1.08,0,0,1,.43.88,0.7,0.7,0,0,1-.81.73,0.58,0.58,0,0,1,.51.44,3,3,0,0,1-.42.92,2.57,2.57,0,0,0-.42,1.1,0.45,0.45,0,0,0,.46.54,1.86,1.86,0,0,0,1.09-.59,6.31,6.31,0,0,0,1.28-1.77l0.29,0.29a6.06,6.06,0,0,1-1.4,2,2.51,2.51,0,0,1-1.69.77,1.11,1.11,0,0,1-.92-0.41,1.45,1.45,0,0,1-.32-0.93,8.32,8.32,0,0,1-1.17,1.2,1.65,1.65,0,0,1-1,.38,1.22,1.22,0,0,1-.89-0.35A1.32,1.32,0,0,1,1953.21,323.88Zm1.21,0.08q0,0.48.35,0.48a0.91,0.91,0,0,0,.42-0.11,2.44,2.44,0,0,0,.48-0.34l0.47-.45a7,7,0,0,0,.52-0.59l0.45-.57,0.44-.59,0.36-.5a0.15,0.15,0,0,1,.13-0.08h0l0,0a1.78,1.78,0,0,0,.08-0.56,0.64,0.64,0,0,0-.65-0.79,2.8,2.8,0,0,0-2.05,1.48A4.73,4.73,0,0,0,1954.42,324Z" transform="translate(-1897.95 -265.94)"/><path class="cls-5" d="M1960.33,322.53a17.6,17.6,0,0,0,1.23-2.75,0.57,0.57,0,0,1-.14-0.41,1.34,1.34,0,0,1,.23-0.74,0.61,0.61,0,0,1,.44-0.35,0.33,0.33,0,0,1,.28.18,0.62,0.62,0,0,1,.11.3,1,1,0,0,1-.11.3,1.47,1.47,0,0,0-.11.27,0.59,0.59,0,0,0,.28.33q0.26,0.19.57,0.37a1.88,1.88,0,0,1,.56.54,1.34,1.34,0,0,1,.26.8,3.42,3.42,0,0,1-.4,1.34,3.69,3.69,0,0,0-.4,1.09,0.33,0.33,0,0,0,.39.35,2.34,2.34,0,0,0,1.49-.75,4.79,4.79,0,0,0,1.15-1.48l0.36,0.27a5.33,5.33,0,0,1-1.45,1.9,3,3,0,0,1-2,.83,1.32,1.32,0,0,1-.9-0.3,1,1,0,0,1-.34-0.81,4,4,0,0,1,.42-1.4,4.1,4.1,0,0,0,.43-1.31,1.14,1.14,0,0,0-.75-1,18.13,18.13,0,0,1-1.4,2.84Z" transform="translate(-1897.95 -265.94)"/><path class="cls-5" d="M1965.55,323.23a1.41,1.41,0,0,1,.19-0.8,1.08,1.08,0,0,1,.48-0.39,1.83,1.83,0,0,0,.33-0.15,7.62,7.62,0,0,0,1.46-2.08v-0.15q0-1.11.7-1.11a0.32,0.32,0,0,1,.36.3,1.48,1.48,0,0,1,0,.22,1.54,1.54,0,0,0,0,.33,6.39,6.39,0,0,0,.44,1.65,6.29,6.29,0,0,1,.44,2,3.89,3.89,0,0,1-.06.62,3,3,0,0,0,1.79-1.72l0.18,0.14a2.68,2.68,0,0,1-2.11,2,1.79,1.79,0,0,1-.79.92,2.53,2.53,0,0,1-1.27.31,1.91,1.91,0,0,1-1.56-.61A2.23,2.23,0,0,1,1965.55,323.23Zm0.83,0a1.6,1.6,0,0,0,.3,1,1,1,0,0,0,.83.42,1,1,0,0,0,1-.59,3,3,0,0,1-1.09-.46,3.46,3.46,0,0,1-.8-0.74A0.35,0.35,0,0,0,1966.39,323.25Zm0.44-1a2.87,2.87,0,0,0,1.79,1.29,1.64,1.64,0,0,0,0-.47,4.5,4.5,0,0,0-.06-0.71q-0.06-.39-0.11-0.61t-0.19-.74q-0.14-.52-0.17-0.66A10.36,10.36,0,0,1,1966.82,322.29Z" transform="translate(-1897.95 -265.94)"/></svg>