<?xml version="1.0" encoding="utf-8"?>
<!-- Generator: Adobe Illustrator 19.2.1, SVG Export Plug-In . SVG Version: 6.00 Build 0)  -->
<svg version="1.1" id="Isolation_Mode" xmlns="http://www.w3.org/2000/svg" xmlns:xlink="http://www.w3.org/1999/xlink" x="0px"
	 y="0px" viewBox="0 0 1440 124" style="enable-background:new 0 0 1440 124;" xml:space="preserve">
<style type="text/css">
	.st0{fill:#FFFFFF;}
</style>
<g>
	<g>
		<path class="st0" d="M0,111.9h15.9V10.1H0V0h55.3c7.4,0,15,0.7,20.7,3.5C88,8.8,95.6,20.8,95.6,36.6c0,16.8-8.5,29.8-22.1,34.7
			c-5.7,1.9-11.2,2.4-18,2.4H28v38.2h15.9v10.1H0V111.9z M54.3,63.3c5.9,0,10.7-0.9,14.7-2.4c9-3.6,14.3-12.3,14.3-24.3
			c0-11.1-4.5-19.1-12.6-23.2c-4.5-1.9-10-2.9-16.4-2.9H28v52.9H54.3z"/>
		<path class="st0" d="M123.9,111.9h15.9V10.4h-15.9V0h43.9v10.4h-15.9v101.1h48.6V91.2h11.1v30.7h-87.6V111.9z"/>
		<path class="st0" d="M231.7,111.9h12.4L285.1,0h13.3l41,111.9h12.4v10.1H313v-10.1h14l-11.6-31.4H268l-11.4,31.4h14v10.1h-38.9
			V111.9z M312.1,70.2L294,20.3c-0.7-2.1-0.9-4-1.4-5.4l-0.5-2.4h-0.5c0,0.9-0.2,1.6-0.3,2.4c-0.5,1.4-0.7,3.3-1.4,5.4l-18.5,49.9
			H312.1z"/>
		<path class="st0" d="M391.9,111.9h15.9V10.4h-34v19.8h-10.9V0h102v30.2h-11.1V10.4h-33.9v101.4h15.9v10.1h-43.9V111.9z"/>
		<path class="st0" d="M492.7,111.9h15.9V10.1h-15.9V0h43.9v10.1h-15.9v101.8h15.9v10.1h-43.9V111.9z"/>
		<path class="st0" d="M568.2,111.9h15.9V10.1h-15.9V0h27.7l68.1,96.2c0.9,1.2,1.6,2.8,2.4,4.7c0.5,0.9,0.9,1.9,1.2,2.8h0.3
			l-0.3-2.9c-0.2-1.9-0.2-4-0.2-5.6V10.1h-16.1V0h44.1v10.1h-15.9v111.9h-11.8l-68.1-96.2c-0.9-1.4-1.7-3.3-2.4-4.9
			c-0.5-0.9-0.9-1.7-1.2-2.6h-0.3l0.3,3c0.2,1.9,0.3,3.8,0.2,5.4v85.3h16.1v10.1h-44.1V111.9z"/>
		<path class="st0" d="M737.4,10.1h-15.9V0h43.9v10.1h-15.9v66.8c0,8.8,1.7,16.7,5.4,22.4c5.7,8.8,16.1,13.7,29.2,13.7
			c13.1,0,23.8-5,29.2-14.2c3.6-6.1,5.4-13.5,5.4-22.2V10.1h-15.9V0h43.9v10.1h-15.9V77c0,11.3-2.8,21.3-7.8,28.8
			c-8.1,11.8-22.1,18.2-38.9,18.2c-17.1,0-31.5-6.6-39.2-18.4c-5.4-7.6-7.4-17-7.4-28.6V10.1z"/>
		<path class="st0" d="M871.5,111.9h15.9l8.1-101.8h-16.1V0h29.2l35.3,79.8c0.9,1.9,1.2,3.8,1.7,5l0.7,2.1h0.3
			c0.2-0.7,0.3-1.4,0.7-2.1c0.5-1.2,1-3.1,1.9-5L984.5,0h29v10.1h-15.9l8,101.8h15.9v10.1h-43.4v-10.1h15.6l-6.6-84.1
			c0-1.6,0-3.6,0.2-5.6c0.2-1,0.2-2.1,0.2-3.1h-0.3l-0.9,2.9c-0.5,1.9-1,3.6-1.7,5.2l-32.3,71.4h-11.2l-32.5-71.4
			c-0.5-1.6-1.2-3.3-1.7-5.2c-0.3-1-0.5-2.1-0.7-2.9h-0.5c0,1,0,2.1,0.2,3.1c0.2,1.9,0.3,4,0.2,5.6l-6.6,84.1h15.6v10.1h-43.4V111.9
			z"/>
		<path class="st0" d="M1106.3,111.9h15.9V10.1h-15.9V0h43.9v10.1h-15.9v101.8h15.9v10.1h-43.9V111.9z"/>
		<path class="st0" d="M1181.8,111.9h15.9V10.1h-15.9V0h27.7l68.1,96.2c0.9,1.2,1.6,2.8,2.4,4.7c0.5,0.9,0.9,1.9,1.2,2.8h0.3
			l-0.3-2.9c-0.2-1.9-0.2-4-0.2-5.6V10.1h-16.1V0h44.1v10.1h-15.9v111.9h-11.8l-68.1-96.2c-0.9-1.4-1.7-3.3-2.4-4.9
			c-0.5-0.9-0.9-1.7-1.2-2.6h-0.3l0.3,3c0.2,1.9,0.3,3.8,0.2,5.4v85.3h16.1v10.1h-44.1V111.9z"/>
		<path class="st0" d="M1338.7,111.9h15.9V10.1h-15.9V0h43v10.1h-15v43h17.8l29.7-43h-11.9V0h37.7v10.1h-12.3l-33.5,47.3v0.3
			l1.7,1.4c1.2,1.2,2.6,2.8,4.1,5.7L1425,107c2.1,3.5,4.3,4.9,9,4.9h6v10.1h-9.2c-10.2,0-12.6-2.3-16.8-9.2l-25.4-43.9
			c-2.1-3.6-4.3-5.4-9.7-5.4h-12.3v48.4h15.7v10.1h-43.7V111.9z"/>
	</g>
</g>
</svg>
