<?xml version="1.0" encoding="utf-8"?>
<!-- Generator: Adobe Illustrator 20.1.0, SVG Export Plug-In . SVG Version: 6.00 Build 0)  -->
<svg version="1.1" id="Layer_1" xmlns="http://www.w3.org/2000/svg" xmlns:xlink="http://www.w3.org/1999/xlink" x="0px" y="0px"
	 width="16px" height="32px" viewBox="0 0 16 32" style="enable-background:new 0 0 16 32;" xml:space="preserve">
<style type="text/css">
	.st0{fill:#999999;}
	.st1{fill:#4D9E72;}
</style>
<path class="st0" d="M16,8.2c0-0.1,0-0.1,0-0.2c0-0.1,0-0.1,0-0.2c0-0.1,0-0.1,0-0.2c0-0.1-0.1-0.1-0.1-0.2c0,0,0-0.1-0.1-0.1l-6-7
	c-0.4-0.4-1-0.5-1.4-0.1c-0.4,0.4-0.5,1-0.1,1.4L13.7,8l-5.4,6.3c-0.4,0.4-0.3,1,0.1,1.4C8.5,15.9,8.8,16,9,16
	c0.3,0,0.6-0.1,0.8-0.3l6-7c0,0,0-0.1,0.1-0.1c0-0.1,0.1-0.1,0.1-0.2C16,8.3,16,8.3,16,8.2z"/>
<path class="st0" d="M2.3,8l5.4-6.3c0.4-0.4,0.3-1.1-0.1-1.4c-0.4-0.4-1-0.3-1.4,0.1l-6,7c0,0,0,0.1-0.1,0.1c0,0.1-0.1,0.1-0.1,0.2
	c0,0.1,0,0.1,0,0.2C0,7.9,0,7.9,0,8c0,0.1,0,0.1,0,0.2c0,0.1,0,0.1,0,0.2c0,0.1,0.1,0.1,0.1,0.2c0,0,0,0.1,0.1,0.1l6,7
	C6.4,15.9,6.7,16,7,16c0.2,0,0.5-0.1,0.7-0.2c0.4-0.4,0.5-1,0.1-1.4L2.3,8z"/>
<path class="st1" d="M16,24.2c0-0.1,0-0.1,0-0.2c0-0.1,0-0.1,0-0.2c0-0.1,0-0.1,0-0.2c0-0.1-0.1-0.1-0.1-0.2c0,0,0-0.1-0.1-0.1l-6-7
	c-0.4-0.4-1-0.5-1.4-0.1c-0.4,0.4-0.5,1-0.1,1.4l5.4,6.3l-5.4,6.3c-0.4,0.4-0.3,1,0.1,1.4C8.5,31.9,8.8,32,9,32
	c0.3,0,0.6-0.1,0.8-0.3l6-7c0,0,0-0.1,0.1-0.1c0-0.1,0.1-0.1,0.1-0.2C16,24.3,16,24.3,16,24.2z"/>
<path class="st1" d="M2.3,24l5.4-6.3c0.4-0.4,0.3-1.1-0.1-1.4c-0.4-0.4-1-0.3-1.4,0.1l-6,7c0,0,0,0.1-0.1,0.1c0,0.1-0.1,0.1-0.1,0.2
	c0,0.1,0,0.1,0,0.2c0,0.1,0,0.1,0,0.2c0,0.1,0,0.1,0,0.2c0,0.1,0,0.1,0,0.2c0,0.1,0.1,0.1,0.1,0.2c0,0,0,0.1,0.1,0.1l6,7
	C6.4,31.9,6.7,32,7,32c0.2,0,0.5-0.1,0.7-0.2c0.4-0.4,0.5-1,0.1-1.4L2.3,24z"/>
</svg>
