<?xml version="1.0" encoding="utf-8"?>
<!-- Generator: Adobe Illustrator 19.2.1, SVG Export Plug-In . SVG Version: 6.00 Build 0)  -->
<svg version="1.1" id="Layer_1" xmlns="http://www.w3.org/2000/svg" xmlns:xlink="http://www.w3.org/1999/xlink" x="0px" y="0px"
	 viewBox="0 0 571 458.3" style="enable-background:new 0 0 571 458.3;" xml:space="preserve">
<style type="text/css">
	.st0{fill:none;stroke:#000000;stroke-miterlimit:10;}
	.st1{opacity:0.1;stroke:#000000;stroke-miterlimit:10;}
</style>
<g>
	<g>
		<path class="st0" d="M553.9,0.5H17.1C8,0.5,0.5,8,0.5,17.1v360.3c0,9.2,7.5,16.6,16.6,16.6h202.6c-0.4,7-1.3,16.7-2.3,25.9
			c-2.9,24.8-5.1,27-5.5,27.2c-2,0.9-8.3,1.8-13.8,2.7c-9.8,1.5-11.2,1.8-11.2,2.8v1.4c0,0.4,0,0.6,1.8,0.9v1.6
			c0,1.1,31.4,1.2,59.8,1.2c14.4,0,28,0,36.4,0c8.4,0,22,0,36.4,0c28.4,0,59.8-0.2,59.8-1.2v-1.6c1.8-0.2,1.8-0.5,1.8-0.9v-1.4
			c0-0.9-1.4-1.3-11.2-2.8c-5.5-0.8-11.7-1.8-13.8-2.7c-0.4-0.2-2.7-2.3-5.5-27.2c-1.1-9.2-1.9-18.8-2.3-25.9h203.8
			c9.2,0,16.6-7.5,16.6-16.6V17.1C570.5,8,563,0.5,553.9,0.5z M3.5,18.3C3.5,9.9,10.4,3,19,3H552c8.5,0,15.5,6.9,15.5,15.3V338H3.5
			V18.3z M380.2,456c-1.2,0.2-5.6,0.6-19.8,0.8c-9.5,0.1-22.3,0.2-39.2,0.2c-8.7,0-17,0-24.3,0c-4.6,0-8.8,0-12.1,0
			c-3.3,0-7.4,0-12.1,0c-7.3,0-15.6,0-24.3,0c-16.8,0-29.7-0.1-39.2-0.2c-14.2-0.2-18.5-0.5-19.8-0.8v-1c2.5,0.3,7.6,0.4,17.5,0.6
			c9.8,0.2,23.3,0.2,41.2,0.2c8.9,0,17.2,0,24.6,0c4.7,0,8.8,0,12,0c3.3,0,7.4,0,12,0c7.4,0,15.8,0,24.6,0c17.9,0,31.4-0.1,41.2-0.2
			c9.9-0.1,14.9-0.3,17.5-0.6V456z M351.3,420.1c3.1,26.7,5.4,27.7,6.2,28.1c2.2,0.9,8.2,1.9,14,2.8c4.2,0.6,9.3,1.4,10.3,1.9v0.9
			c-2.6,0.7-22.9,1-60.2,1c-8.8,0-17.2,0-24.6,0c-4.7,0-8.8,0-12,0c-3.3,0-7.4,0-12,0c-7.4,0-15.8,0-24.6,0c-37.4,0-57.6-0.3-60.2-1
			v-0.9c1-0.5,6.1-1.3,10.3-1.9c5.8-0.9,11.9-1.8,14-2.8c0.8-0.3,3.1-1.3,6.2-28.1c1.1-9.2,1.9-18.9,2.3-26H349
			C349.5,401.2,350.3,410.9,351.3,420.1z M569.4,377.5c0,8.6-7,15.6-15.5,15.6H17.1c-8.6,0-15.5-7-15.5-15.6v-34.9h567.8V377.5z"/>
		<path class="st1" d="M381.8,452.8v0.9c-2.6,0.7-22.9,1-60.2,1c-8.8,0-17.2,0-24.6,0c-4.7,0-8.8,0-12,0c-3.3,0-7.4,0-12,0
			c-7.4,0-15.8,0-24.6,0c-37.4,0-57.6-0.3-60.2-1v-0.9c1-0.5,6.1-1.3,10.3-1.9c5.8-0.9,11.9-1.8,14-2.8c0.8-0.3,3.1-1.3,6.2-28.1
			c1.1-9.2,1.9-18.9,2.3-26H349c0.4,7.1,1.3,16.8,2.3,26c3.1,26.7,5.4,27.7,6.2,28.1c2.2,0.9,8.2,1.9,14,2.8
			C375.7,451.6,380.8,452.4,381.8,452.8z"/>
		<path class="st1" d="M569.4,342.5v34.9c0,8.6-7,15.6-15.5,15.6H17.1c-8.6,0-15.5-7-15.5-15.6v-34.9H569.4z"/>
		<path class="st1" d="M552,3H19C10.4,3,3.5,9.9,3.5,18.3V338h564V18.3C567.5,9.9,560.6,3,552,3z M285.5,10.3c1.2,0,2.2,1,2.2,2.2
			s-1,2.2-2.2,2.2s-2.2-1-2.2-2.2S284.3,10.3,285.5,10.3z M547.7,318.1c0,0.9-0.7,1.6-1.6,1.6H24.9c-0.9,0-1.6-0.7-1.6-1.6V24.9
			c0-0.9,0.7-1.6,1.6-1.6h521.1c0.9,0,1.6,0.7,1.6,1.6V318.1z"/>
		<path d="M546.1,23.3H24.9c-0.9,0-1.6,0.7-1.6,1.6v293.1c0,0.9,0.7,1.6,1.6,1.6h521.1c0.9,0,1.6-0.7,1.6-1.6V24.9
			C547.7,24,547,23.3,546.1,23.3z M546.1,318.1H24.9V24.9h521.1V318.1z"/>
		<path d="M285.5,10.3c-1.2,0-2.2,1-2.2,2.2s1,2.2,2.2,2.2s2.2-1,2.2-2.2S286.7,10.3,285.5,10.3z M285.5,13.6
			c-0.6,0-1.1-0.5-1.1-1.1c0-0.6,0.5-1.1,1.1-1.1s1.1,0.5,1.1,1.1C286.6,13.1,286.1,13.6,285.5,13.6z"/>
	</g>
</g>
</svg>
